<svg xmlns="http://www.w3.org/2000/svg" width="161" height="48" viewBox="0 0 161 48">
    <defs>
        <linearGradient id="a" x1="50.007%" x2="50.007%" y1="100.236%" y2="-1342.587%">
            <stop offset="0%" stop-color="#1A1A1A" stop-opacity=".1"/>
            <stop offset="12.3%" stop-color="#212121" stop-opacity=".151"/>
            <stop offset="30.8%" stop-color="#353535" stop-opacity=".227"/>
            <stop offset="53.2%" stop-color="#575757" stop-opacity=".318"/>
            <stop offset="78.3%" stop-color="#858585" stop-opacity=".421"/>
            <stop offset="100%" stop-color="#B3B3B3" stop-opacity=".51"/>
        </linearGradient>
    </defs>
    <g fill="none" fill-rule="nonzero">
        <path d="M155.09 47.936H4.67A5.668 5.668 0 0 1-1 42.267V5.668A5.668 5.668 0 0 1 4.67 0h150.42a5.668 5.668 0 0 1 5.67 5.668v36.6a5.668 5.668 0 0 1-5.67 5.668z"/>
        <path fill="#000" d="M159.7 42.267a4.574 4.574 0 0 1-4.583 4.581H4.696c-2.537 0-4.609-2.044-4.609-4.58v-36.6a4.618 4.618 0 0 1 4.609-4.607h150.42a4.601 4.601 0 0 1 4.609 4.607l-.026 36.6z"/>
        <path fill="#FFF" d="M35.117 23.709c-.026-3.857 3.158-5.746 3.313-5.824-1.812-2.64-4.608-3.002-5.618-3.028-2.356-.259-4.634 1.423-5.85 1.423-1.218 0-3.082-1.397-5.075-1.345-2.563.051-4.971 1.527-6.292 3.83-2.718 4.711-.699 11.622 1.916 15.4 1.295 1.864 2.822 3.935 4.816 3.857 1.942-.077 2.667-1.242 5.023-1.242 2.33 0 3.003 1.242 5.048 1.19 2.097-.025 3.418-1.863 4.66-3.753 1.502-2.122 2.097-4.244 2.123-4.348 0 0-4.013-1.527-4.064-6.16zm-3.832-11.363c1.035-1.32 1.76-3.08 1.553-4.892-1.527.078-3.417 1.062-4.505 2.33-.958 1.139-1.838 2.976-1.605 4.71 1.709.13 3.47-.854 4.557-2.148z"/>
        <path fill="url(#a)" d="M156.09 0H75.522l31.56 47.936h49.01a5.668 5.668 0 0 0 5.67-5.669V5.668A5.668 5.668 0 0 0 156.09 0z" transform="translate(-1)"/>
        <path fill="#FFF" d="M63.337 37.763h-2.719l-1.501-4.684h-5.178l-1.424 4.684h-2.641L55 21.82h3.185l5.152 15.944zm-4.66-6.651l-1.347-4.168c-.155-.414-.414-1.423-.802-3.002h-.052c-.156.673-.414 1.682-.751 3.002l-1.32 4.168h4.271zm17.838.75c0 1.967-.544 3.494-1.606 4.633-.957 1.01-2.123 1.527-3.546 1.527-1.528 0-2.615-.543-3.289-1.63v6.03h-2.537V30.024c0-1.216-.026-2.484-.103-3.779h2.252l.155 1.812h.052c.855-1.371 2.15-2.07 3.884-2.07 1.346 0 2.485.543 3.391 1.604.906 1.113 1.347 2.537 1.347 4.271zm-2.59.104c0-1.113-.258-2.045-.75-2.77-.544-.75-1.295-1.139-2.227-1.139-.621 0-1.19.207-1.708.622-.518.414-.855.957-1.01 1.656a4.054 4.054 0 0 0-.13.777v1.915c0 .828.26 1.553.777 2.122.518.57 1.191.854 1.994.854.958 0 1.708-.362 2.252-1.113.544-.724.803-1.708.803-2.924zm15.845-.104c0 1.967-.543 3.494-1.605 4.633-.958 1.01-2.123 1.527-3.547 1.527-1.527 0-2.615-.543-3.288-1.63v6.03h-2.563V30.024c0-1.216-.026-2.484-.104-3.779h2.253l.155 1.812h.052c.854-1.371 2.149-2.07 3.884-2.07 1.346 0 2.485.543 3.391 1.604.906 1.113 1.372 2.537 1.372 4.271zm-2.615.104c0-1.113-.259-2.045-.75-2.77-.544-.75-1.295-1.139-2.227-1.139-.621 0-1.19.207-1.709.622-.517.414-.854.957-1.01 1.656-.077.31-.129.57-.129.777v1.915c0 .828.259 1.553.777 2.122.518.57 1.19.854 1.993.854.958 0 1.71-.362 2.253-1.113.543-.724.802-1.708.802-2.924zm17.398 1.32c0 1.346-.466 2.459-1.423 3.313-1.036.932-2.486 1.397-4.35 1.397-1.709 0-3.08-.336-4.142-.983l.595-2.123c1.113.673 2.356.984 3.702.984.958 0 1.71-.207 2.253-.647.543-.44.802-1.01.802-1.734 0-.647-.233-1.19-.673-1.63-.44-.44-1.165-.855-2.2-1.243-2.797-1.036-4.195-2.563-4.195-4.582 0-1.32.492-2.38 1.476-3.21.984-.827 2.304-1.241 3.91-1.241 1.45 0 2.666.258 3.624.75l-.647 2.07c-.906-.491-1.916-.724-3.055-.724-.906 0-1.605.233-2.123.673-.414.388-.647.88-.647 1.45 0 .62.233 1.164.725 1.552.414.389 1.19.777 2.33 1.243 1.372.543 2.382 1.19 3.029 1.941.699.725 1.01 1.63 1.01 2.744zm8.466-5.1h-2.822v5.591c0 1.424.492 2.123 1.502 2.123.466 0 .829-.026 1.14-.13l.077 1.942c-.492.18-1.165.284-1.994.284-1.01 0-1.786-.31-2.356-.931-.57-.622-.854-1.657-.854-3.106V28.16h-1.683v-1.916h1.683V24.15l2.511-.75v2.872h2.822l-.026 1.916zm12.687 3.728c0 1.76-.518 3.21-1.528 4.348-1.061 1.165-2.46 1.76-4.22 1.76-1.683 0-3.03-.57-4.039-1.682-1.01-1.113-1.501-2.537-1.501-4.245 0-1.786.517-3.235 1.553-4.374 1.036-1.139 2.434-1.708 4.168-1.708 1.683 0 3.055.569 4.065 1.682 1.01 1.087 1.502 2.51 1.502 4.219zm-2.641.052c0-1.062-.233-1.967-.673-2.718-.544-.906-1.295-1.372-2.305-1.372-1.035 0-1.812.466-2.356 1.372-.466.75-.673 1.682-.673 2.77 0 1.06.233 1.967.673 2.717.544.906 1.32 1.372 2.33 1.372.984 0 1.735-.466 2.305-1.398.466-.776.699-1.682.699-2.743zm10.951-3.469a4.216 4.216 0 0 0-.802-.077c-.906 0-1.606.336-2.072 1.01-.414.594-.647 1.345-.647 2.277v6.03h-2.563V29.87c0-1.216-.026-2.407-.078-3.624h2.227l.104 2.2h.077c.26-.75.7-1.371 1.269-1.811.544-.389 1.19-.621 1.838-.621.233 0 .44.025.647.051v2.433zm11.444 2.977c0 .388-.026.776-.104 1.165h-7.663c.026 1.138.388 2.019 1.113 2.614.647.543 1.476.802 2.511.802 1.14 0 2.175-.181 3.107-.543l.388 1.76c-1.087.466-2.381.699-3.857.699-1.787 0-3.185-.518-4.194-1.58-1.01-1.06-1.528-2.458-1.528-4.218 0-1.734.466-3.184 1.424-4.323.984-1.242 2.33-1.837 4.013-1.837 1.657 0 2.926.62 3.754 1.837.7.984 1.036 2.174 1.036 3.624zm-2.434-.673c.026-.75-.155-1.424-.492-1.967-.44-.725-1.113-1.061-2.045-1.061-.829 0-1.528.336-2.046 1.035-.414.543-.673 1.216-.75 1.993h5.333zM53.214 16.177c-.7 0-1.32-.026-1.839-.104V8.36c.725-.103 1.45-.155 2.175-.155 2.926 0 4.272 1.45 4.272 3.805 0 2.692-1.605 4.167-4.608 4.167zm.414-6.988a5.72 5.72 0 0 0-1.01.077v5.85c.155.026.44.026.855.026 1.915 0 3.003-1.087 3.003-3.132 0-1.812-.984-2.821-2.848-2.821zm8.388 7.04c-1.657 0-2.718-1.243-2.718-2.9 0-1.733 1.087-2.976 2.822-2.976 1.63 0 2.718 1.165 2.718 2.9 0 1.733-1.139 2.976-2.822 2.976zm.052-4.97c-.906 0-1.502.854-1.502 2.045 0 1.165.596 2.019 1.476 2.019s1.476-.906 1.476-2.045c.026-1.165-.57-2.019-1.45-2.019zm12.194-.802l-1.76 5.642h-1.165l-.725-2.459a21.195 21.195 0 0 1-.466-1.837h-.026a11.244 11.244 0 0 1-.466 1.837l-.777 2.46h-1.165l-1.657-5.643h1.295l.647 2.692c.155.647.285 1.242.388 1.811h.026c.104-.465.233-1.06.466-1.811l.803-2.692h1.035l.777 2.64c.181.647.337 1.268.466 1.863h.026c.078-.569.207-1.19.388-1.863l.7-2.64h1.19zm6.499 5.642h-1.243v-3.235c0-1.01-.389-1.501-1.14-1.501-.75 0-1.268.647-1.268 1.371V16.1h-1.269v-4.037c0-.492 0-1.036-.051-1.605h1.113l.052.88h.026c.336-.596 1.035-.984 1.786-.984 1.191 0 1.968.906 1.968 2.381l.026 3.365zm3.469 0H82.96V7.843h1.269v8.256zm4.582.13c-1.657 0-2.718-1.243-2.718-2.9 0-1.733 1.087-2.976 2.822-2.976 1.631 0 2.718 1.165 2.718 2.9 0 1.733-1.139 2.976-2.822 2.976zm.052-4.97c-.906 0-1.501.854-1.501 2.045 0 1.165.595 2.019 1.475 2.019.88 0 1.476-.906 1.476-2.045 0-1.165-.57-2.019-1.45-2.019zm7.715 4.84l-.103-.647h-.026c-.388.518-.932.777-1.657.777-1.01 0-1.735-.7-1.735-1.657 0-1.397 1.217-2.122 3.314-2.122v-.104c0-.75-.388-1.113-1.165-1.113-.57 0-1.035.13-1.476.414l-.258-.828c.517-.336 1.165-.492 1.941-.492 1.476 0 2.227.777 2.227 2.33v2.07c0 .57.026 1.01.078 1.346l-1.14.026zm-.18-2.821c-1.399 0-2.098.337-2.098 1.139 0 .595.362.88.854.88.648 0 1.243-.492 1.243-1.139v-.88zm7.326 2.821l-.052-.906h-.026c-.362.673-.958 1.036-1.812 1.036-1.372 0-2.382-1.19-2.382-2.873 0-1.76 1.036-3.003 2.486-3.003.75 0 1.294.26 1.605.777h.026V7.843h1.268v6.73c0 .543.026 1.06.052 1.526h-1.165zm-.181-3.313c0-.802-.518-1.475-1.32-1.475-.933 0-1.502.828-1.502 1.993 0 1.139.595 1.915 1.475 1.915.803 0 1.347-.699 1.347-1.5v-.933zm9.242 3.443c-1.656 0-2.718-1.243-2.718-2.9 0-1.733 1.087-2.976 2.822-2.976 1.631 0 2.718 1.165 2.718 2.9 0 1.733-1.139 2.976-2.822 2.976zm.052-4.97c-.906 0-1.475.854-1.475 2.045 0 1.165.595 2.019 1.475 2.019.88 0 1.476-.906 1.476-2.045-.026-1.165-.595-2.019-1.476-2.019zm9.528 4.84h-1.269v-3.235c0-1.01-.388-1.501-1.139-1.501-.75 0-1.243.647-1.243 1.371V16.1h-1.268v-4.037c0-.492 0-1.036-.052-1.605h1.113l.052.88h.026c.336-.596 1.035-.984 1.786-.984 1.191 0 1.968.906 1.968 2.381V16.1h.026zm8.44-4.71h-1.372v2.743c0 .699.233 1.036.725 1.036.233 0 .414-.026.57-.052l.025.957c-.233.104-.57.13-.984.13-.984 0-1.579-.544-1.579-1.967v-2.847h-.828v-.932h.828V9.42l1.243-.362v1.398h1.372v.932zm6.654 4.71h-1.243v-3.21c0-1.009-.388-1.526-1.14-1.526-.646 0-1.268.44-1.268 1.346v3.416h-1.243V7.843h1.243v3.39h.026c.388-.62.958-.932 1.709-.932 1.19 0 1.916.932 1.916 2.408v3.39zm6.809-2.51h-3.78c.026 1.06.725 1.682 1.786 1.682a4.72 4.72 0 0 0 1.528-.259l.207.88c-.544.233-1.165.337-1.89.337-1.76 0-2.822-1.113-2.822-2.847 0-1.735 1.061-3.029 2.666-3.029 1.45 0 2.356 1.061 2.356 2.692 0 .155 0 .337-.051.544zm-1.14-.906c0-.88-.44-1.501-1.242-1.501-.725 0-1.295.62-1.372 1.5h2.615z"/>
    </g>
</svg>
