<svg xmlns="http://www.w3.org/2000/svg" width="162" height="48" viewBox="0 0 162 48">
    <defs>
        <linearGradient id="a" x1="61.052%" x2="26.056%" y1="4.84%" y2="71.968%">
            <stop offset="0%" stop-color="#00A0FF"/>
            <stop offset=".7%" stop-color="#00A1FF"/>
            <stop offset="26%" stop-color="#00BEFF"/>
            <stop offset="51.2%" stop-color="#00D2FF"/>
            <stop offset="76%" stop-color="#00DFFF"/>
            <stop offset="100%" stop-color="#00E3FF"/>
        </linearGradient>
        <linearGradient id="b" x1="107.724%" x2="-130.67%" y1="49.424%" y2="49.424%">
            <stop offset="0%" stop-color="#FFE000"/>
            <stop offset="40.9%" stop-color="#FFBD00"/>
            <stop offset="77.5%" stop-color="#FFA500"/>
            <stop offset="100%" stop-color="#FF9C00"/>
        </linearGradient>
        <linearGradient id="c" x1="86.389%" x2="-49.886%" y1="30.877%" y2="135.788%">
            <stop offset="0%" stop-color="#FF3A44"/>
            <stop offset="100%" stop-color="#C31162"/>
        </linearGradient>
        <linearGradient id="d" x1="-18.581%" x2="42.275%" y1="-11.529%" y2="35.103%">
            <stop offset="0%" stop-color="#32A071"/>
            <stop offset="6.9%" stop-color="#2DA771"/>
            <stop offset="47.6%" stop-color="#15CF74"/>
            <stop offset="80.1%" stop-color="#06E775"/>
            <stop offset="100%" stop-color="#00F076"/>
        </linearGradient>
    </defs>
    <g fill="none" fill-rule="nonzero">
        <path fill="#000" d="M156 47.94H6c-3.36 0-6-2.637-6-5.992V5.993C0 2.637 2.64 0 6 0h150c3.36 0 6 2.637 6 5.993v35.955c0 3.355-2.64 5.992-6 5.992z"/>
        <path d="M156 .959c2.76 0 5.04 2.277 5.04 5.034v35.955c0 2.756-2.28 5.033-5.04 5.033H6c-2.76 0-5.04-2.277-5.04-5.033V5.993C.96 3.236 3.24.959 6 .959h150zM156 0H6C2.64 0 0 2.757 0 5.993v35.955c0 3.355 2.64 5.992 6 5.992h150c3.36 0 6-2.637 6-5.992V5.993C162 2.757 159.36 0 156 0z"/>
        <path fill="#FFF" stroke="#FFF" stroke-width=".4" d="M56.88 12.225c0 .959-.24 1.797-.84 2.397-.72.719-1.56 1.078-2.64 1.078s-1.92-.36-2.64-1.078c-.72-.72-1.08-1.558-1.08-2.637s.36-1.918 1.08-2.637c.72-.719 1.56-1.078 2.64-1.078.48 0 .96.12 1.44.36.48.239.84.479 1.08.838l-.6.6c-.48-.6-1.08-.84-1.92-.84-.72 0-1.44.24-1.92.84-.6.479-.84 1.198-.84 2.037s.24 1.558.84 2.037c.6.48 1.2.84 1.92.84.84 0 1.44-.24 2.04-.84.36-.36.6-.839.6-1.438H53.4v-.959h3.48v.48zm5.52-2.997h-3.24v2.278h3v.839h-3v2.277h3.24v.959h-4.2V8.39h4.2v.838zm3.96 6.353h-.96V9.228h-2.04V8.39h5.04v.838h-2.04v6.353zm5.52 0V8.39h.96v7.19h-.96zm5.04 0h-.96V9.228h-2.04V8.39h4.92v.838H76.8v6.353h.12zm11.4-.96c-.72.72-1.56 1.08-2.64 1.08s-1.92-.36-2.64-1.08c-.72-.718-1.08-1.557-1.08-2.636 0-1.079.36-1.918 1.08-2.637.72-.719 1.56-1.078 2.64-1.078s1.92.36 2.64 1.078c.72.72 1.08 1.558 1.08 2.637s-.36 1.918-1.08 2.637zm-4.56-.599c.48.48 1.2.84 1.92.84s1.44-.24 1.92-.84c.48-.479.84-1.198.84-2.037s-.24-1.558-.84-2.037c-.48-.48-1.2-.84-1.92-.84s-1.44.24-1.92.84a2.89 2.89 0 0 0-.84 2.037c0 .839.24 1.558.84 2.037zm6.96 1.559V8.39h1.08l3.48 5.632V8.39h.96v7.19h-.96l-3.72-5.872v5.873h-.84z"/>
        <path fill="#FFF" d="M81.72 26.127c-2.88 0-5.16 2.158-5.16 5.154a5.119 5.119 0 0 0 5.16 5.153c2.88 0 5.16-2.157 5.16-5.153 0-3.116-2.28-5.154-5.16-5.154zm0 8.15c-1.56 0-2.88-1.318-2.88-3.116s1.32-3.116 2.88-3.116c1.56 0 2.88 1.198 2.88 3.116 0 1.798-1.32 3.116-2.88 3.116zm-11.16-8.15c-2.88 0-5.16 2.158-5.16 5.154a5.119 5.119 0 0 0 5.16 5.153c2.88 0 5.16-2.157 5.16-5.153 0-3.116-2.28-5.154-5.16-5.154zm0 8.15c-1.56 0-2.88-1.318-2.88-3.116s1.32-3.116 2.88-3.116c1.56 0 2.88 1.198 2.88 3.116 0 1.798-1.32 3.116-2.88 3.116zm-13.32-6.592v2.158h5.16c-.12 1.198-.6 2.157-1.2 2.756-.72.72-1.92 1.558-3.96 1.558-3.24 0-5.64-2.517-5.64-5.753 0-3.235 2.52-5.752 5.64-5.752 1.68 0 3 .719 3.96 1.558l1.56-1.558c-1.32-1.199-3-2.158-5.4-2.158-4.32 0-8.04 3.596-8.04 7.91 0 4.315 3.72 7.91 8.04 7.91 2.4 0 4.08-.718 5.52-2.277 1.44-1.438 1.92-3.475 1.92-5.033 0-.48 0-.96-.12-1.319h-7.44zm54.48 1.678c-.48-1.198-1.68-3.236-4.32-3.236-2.64 0-4.8 2.038-4.8 5.154 0 2.876 2.16 5.153 5.04 5.153 2.28 0 3.72-1.438 4.2-2.277l-1.68-1.198c-.6.839-1.32 1.438-2.52 1.438s-1.92-.48-2.52-1.558l6.84-2.876-.24-.6zm-6.96 1.678c0-1.917 1.56-2.996 2.64-2.996.84 0 1.68.48 1.92 1.079l-4.56 1.917zm-5.64 4.914h2.28V20.974h-2.28v14.981zm-3.6-8.749c-.6-.6-1.56-1.199-2.76-1.199-2.52 0-4.92 2.278-4.92 5.154s2.28 5.034 4.92 5.034c1.2 0 2.16-.6 2.64-1.199h.12v.72c0 1.917-1.08 2.996-2.76 2.996-1.32 0-2.28-.96-2.52-1.798l-1.92.839c.6 1.318 2.04 2.996 4.56 2.996 2.64 0 4.8-1.558 4.8-5.273v-9.109h-2.16v.839zm-2.64 7.071c-1.56 0-2.88-1.318-2.88-3.116s1.32-3.116 2.88-3.116c1.56 0 2.76 1.318 2.76 3.116s-1.2 3.116-2.76 3.116zm29.28-13.303h-5.4v14.981h2.28v-5.633h3.12c2.52 0 4.92-1.798 4.92-4.674 0-2.876-2.4-4.674-4.92-4.674zm.12 7.19h-3.24v-5.153h3.24c1.68 0 2.64 1.438 2.64 2.517-.12 1.318-1.08 2.637-2.64 2.637zm13.8-2.157c-1.68 0-3.36.72-3.96 2.278l2.04.839c.48-.84 1.2-1.08 2.04-1.08 1.2 0 2.28.72 2.4 1.919v.12c-.36-.24-1.32-.6-2.28-.6-2.16 0-4.32 1.199-4.32 3.356 0 2.037 1.8 3.356 3.72 3.356 1.56 0 2.28-.72 2.88-1.438h.12v1.198h2.16v-5.753c-.24-2.636-2.28-4.195-4.8-4.195zm-.24 8.27c-.72 0-1.8-.36-1.8-1.318 0-1.199 1.32-1.558 2.4-1.558.96 0 1.44.24 2.04.48-.24 1.437-1.44 2.396-2.64 2.396zm12.6-7.91l-2.52 6.472h-.12l-2.64-6.472h-2.4l3.96 9.109-2.28 5.033h2.28l6.12-14.142h-2.4zm-20.16 9.588h2.28V20.974h-2.28v14.981z"/>
        <path fill="url(#a)" d="M.48.6C.12.958 0 1.557 0 2.276v26.487c0 .72.24 1.318.6 1.678l.12.12L15.6 15.7v-.24L.48.6z" transform="translate(12 8.39)"/>
        <path fill="url(#b)" d="M20.4 20.734l-4.92-4.914v-.36l4.92-4.913.12.12 5.88 3.355c1.68.96 1.68 2.517 0 3.476l-6 3.236z" transform="translate(12 8.39)"/>
        <path fill="url(#c)" d="M20.52 20.614l-5.04-5.033-15 14.98c.6.6 1.44.6 2.52.12l17.52-10.067" transform="translate(12 8.39)"/>
        <path fill="url(#d)" d="M20.52 10.547L3 .599C1.92 0 1.08.12.48.72l15 14.862 5.04-5.034z" transform="translate(12 8.39)"/>
        <path fill="#000" d="M32.4 28.884L15 38.712c-.96.599-1.8.479-2.4 0l-.12.12.12.12c.6.479 1.44.599 2.4 0l17.4-10.068z" opacity=".2"/>
        <path fill="#000" d="M12.48 38.712c-.36-.36-.48-.96-.48-1.678v.12c0 .719.24 1.318.6 1.677v-.12h-.12zM38.4 25.528l-6 3.356.12.12 5.88-3.356c.84-.48 1.2-1.079 1.2-1.678 0 .6-.48 1.079-1.2 1.558z" opacity=".12"/>
        <path fill="#FFF" d="M15 9.109l23.4 13.303c.72.48 1.2.959 1.2 1.558 0-.6-.36-1.198-1.2-1.678L15 8.99c-1.68-.959-3-.24-3 1.678v.12c0-1.798 1.32-2.637 3-1.678z" opacity=".25"/>
    </g>
</svg>
