<svg xmlns="http://www.w3.org/2000/svg" width="307" height="902" viewBox="0 0 307 902">
    <g fill="none" fill-rule="evenodd">
        <g transform="translate(0 78)">
            <path fill="#E5E5E5" d="M5 2h1v266H5z"/>
            <path fill="#F66" d="M5 274h1v450H5z"/>
            <path fill="#CCC" d="M5 726h1v80H5z"/>
            <circle cx="5.5" cy="5.5" r="5.5" fill="#F2F2F2"/>
            <circle cx="5.5" cy="81.5" r="5.5" fill="#455CCC"/>
            <circle cx="5.5" cy="160.5" r="5.5" fill="#CCC"/>
            <circle cx="5.5" cy="157.5" r="5.5" fill="#455CCC"/>
            <circle cx="5.5" cy="269.5" r="5.5" fill="#E5E5E5"/>
            <circle cx="5.5" cy="470.5" r="5.5" fill="#CCC"/>
            <circle cx="5.5" cy="466.5" r="5.5" fill="#455CCC"/>
            <circle cx="5.5" cy="551.5" r="5.5" fill="#F2F2F2"/>
            <circle cx="5.5" cy="636.5" r="5.5" fill="#455CCC"/>
            <circle cx="5.5" cy="721.5" r="5.5" fill="#F66"/>
            <circle cx="5.5" cy="802.5" r="5.5" fill="#455CCC"/>
        </g>
        <g transform="translate(32 65)">
            <rect width="275" height="36" fill="#F2F2F2" rx="8"/>
            <path fill="#191919" fill-rule="nonzero" d="M12.842 20.239h1.333c.161 1.106 1.216 1.809 2.718 1.809 1.42 0 2.468-.77 2.468-1.817 0-.9-.66-1.472-2.117-1.838l-1.355-.351c-1.911-.484-2.74-1.348-2.74-2.85 0-1.794 1.502-3.01 3.736-3.01 2.044 0 3.567 1.216 3.677 2.922h-1.326c-.183-1.083-1.076-1.728-2.395-1.728-1.406 0-2.336.703-2.336 1.772 0 .828.578 1.304 2.036 1.678l1.106.293c2.19.549 3.069 1.399 3.069 2.951 0 1.941-1.53 3.179-3.948 3.179-2.241 0-3.787-1.186-3.926-3.01zm13.052-4.16c-1.26 0-2.139.922-2.234 2.321h4.35c-.029-1.399-.864-2.321-2.116-2.321zm2.08 4.878h1.26c-.381 1.355-1.597 2.182-3.325 2.182-2.19 0-3.56-1.582-3.56-4.08 0-2.482 1.392-4.094 3.56-4.094 2.131 0 3.427 1.516 3.427 3.97v.483H23.66v.06c.066 1.56.938 2.548 2.278 2.548 1.018 0 1.707-.374 2.036-1.07zM31.387 23V11.97h1.26V23h-1.26zm3.78 0V11.97h1.26V23h-1.26zm6.855-6.921c-1.26 0-2.139.922-2.234 2.321h4.35c-.029-1.399-.864-2.321-2.116-2.321zm2.08 4.878h1.26c-.381 1.355-1.597 2.182-3.325 2.182-2.19 0-3.56-1.582-3.56-4.08 0-2.482 1.392-4.094 3.56-4.094 2.131 0 3.427 1.516 3.427 3.97v.483h-5.676v.06c.066 1.56.938 2.548 2.278 2.548 1.018 0 1.706-.374 2.036-1.07zM47.442 23v-7.896h1.201v1.172h.117c.235-.769 1.143-1.31 2.19-1.31.205 0 .469.014.63.036v1.26c-.102-.03-.557-.074-.806-.074-1.2 0-2.072.806-2.072 1.92V23h-1.26zm13.791-8.035c2.015 0 3.318 1.604 3.318 4.087 0 2.469-1.31 4.087-3.318 4.087-1.128 0-2.036-.49-2.468-1.326h-.117v3.824h-1.26V15.104h1.201v1.319h.118c.505-.908 1.45-1.458 2.526-1.458zm-.3 7.039c1.45 0 2.315-1.106 2.315-2.952 0-1.845-.865-2.951-2.308-2.951-1.428 0-2.329 1.135-2.329 2.951 0 1.81.901 2.952 2.322 2.952zm8.84 0c1.495 0 2.337-1.084 2.337-2.952 0-1.875-.842-2.951-2.337-2.951-1.494 0-2.336 1.076-2.336 2.951 0 1.868.842 2.952 2.336 2.952zm0 1.135c-2.248 0-3.64-1.553-3.64-4.087 0-2.541 1.392-4.087 3.64-4.087 2.249 0 3.64 1.546 3.64 4.087 0 2.534-1.391 4.087-3.64 4.087zm5.435-5.874c0-1.31 1.267-2.3 2.944-2.3 1.656 0 2.806.82 2.974 2.117h-1.245c-.169-.63-.784-1.047-1.736-1.047-.937 0-1.67.476-1.67 1.179 0 .542.44.879 1.37 1.106l1.216.293c1.486.359 2.204 1.003 2.204 2.138 0 1.414-1.37 2.388-3.164 2.388-1.758 0-2.966-.842-3.105-2.153h1.296c.212.666.842 1.091 1.853 1.091 1.062 0 1.824-.505 1.824-1.23 0-.542-.41-.909-1.253-1.114l-1.355-.33c-1.48-.358-2.153-.995-2.153-2.138zm8.489-4.204h1.26v2.043h1.757v1.055h-1.757v4.468c0 .93.351 1.326 1.171 1.326.227 0 .352-.008.586-.03v1.062a4.22 4.22 0 0 1-.74.074c-1.625 0-2.277-.601-2.277-2.11v-4.79h-1.275v-1.055h1.275v-2.043zm4.592 4.204c0-1.31 1.267-2.3 2.944-2.3 1.656 0 2.806.82 2.974 2.117h-1.245c-.169-.63-.784-1.047-1.736-1.047-.937 0-1.67.476-1.67 1.179 0 .542.44.879 1.37 1.106l1.216.293c1.486.359 2.204 1.003 2.204 2.138 0 1.414-1.37 2.388-3.164 2.388-1.758 0-2.966-.842-3.105-2.153h1.296c.212.666.842 1.091 1.853 1.091 1.062 0 1.824-.505 1.824-1.23 0-.542-.41-.909-1.253-1.114l-1.355-.33c-1.48-.358-2.153-.995-2.153-2.138zm14.7 4.768c1.296 0 2.256-.85 2.256-1.977v-.725l-2.124.139c-1.202.08-1.729.498-1.729 1.289 0 .805.681 1.274 1.597 1.274zm-.235 1.106c-1.53 0-2.666-.908-2.666-2.35 0-1.414 1.04-2.227 2.879-2.337l2.278-.14v-.717c0-.974-.608-1.51-1.787-1.51-.945 0-1.604.36-1.78.982h-1.275c.169-1.267 1.414-2.102 3.098-2.102 1.927 0 3.003.99 3.003 2.63V23h-1.2v-1.165h-.118c-.513.843-1.377 1.304-2.432 1.304zm14.158-8.174c2.014 0 3.318 1.604 3.318 4.087 0 2.469-1.311 4.087-3.318 4.087-1.128 0-2.036-.49-2.468-1.326h-.117v3.824h-1.26V15.104h1.201v1.319h.117c.506-.908 1.45-1.458 2.527-1.458zm-.3 7.039c1.45 0 2.314-1.106 2.314-2.952 0-1.845-.864-2.951-2.307-2.951-1.428 0-2.329 1.135-2.329 2.951 0 1.81.9 2.952 2.322 2.952zm5.596.996v-7.896h1.2v1.172h.118c.234-.769 1.142-1.31 2.19-1.31.205 0 .469.014.63.036v1.26c-.103-.03-.557-.074-.806-.074-1.201 0-2.073.806-2.073 1.92V23h-1.26zm8.737-.996c1.494 0 2.337-1.084 2.337-2.952 0-1.875-.843-2.951-2.337-2.951-1.494 0-2.336 1.076-2.336 2.951 0 1.868.842 2.952 2.336 2.952zm0 1.135c-2.248 0-3.64-1.553-3.64-4.087 0-2.541 1.392-4.087 3.64-4.087 2.249 0 3.64 1.546 3.64 4.087 0 2.534-1.391 4.087-3.64 4.087zm8.54 0c-2.021 0-3.318-1.604-3.318-4.087 0-2.475 1.312-4.087 3.318-4.087 1.099 0 2.03.52 2.476 1.385h.11v-4.38h1.26V23h-1.202v-1.26h-.117c-.498.88-1.435 1.4-2.527 1.4zm.293-7.038c-1.435 0-2.307 1.113-2.307 2.951 0 1.846.864 2.952 2.307 2.952 1.436 0 2.322-1.128 2.322-2.952 0-1.809-.893-2.951-2.322-2.951zm12.386-.997V23h-1.202v-1.238h-.117c-.395.88-1.238 1.377-2.446 1.377-1.773 0-2.695-1.055-2.695-2.922v-5.113h1.26v4.805c0 1.421.527 2.08 1.786 2.08 1.392 0 2.154-.827 2.154-2.212v-4.673h1.26zm8.906 2.417h-1.275c-.205-.783-.9-1.42-2.036-1.42-1.42 0-2.314 1.135-2.314 2.922 0 1.824.908 2.98 2.314 2.98 1.062 0 1.802-.49 2.036-1.383h1.275c-.227 1.45-1.406 2.52-3.303 2.52-2.212 0-3.626-1.605-3.626-4.117 0-2.461 1.406-4.058 3.618-4.058 1.92 0 3.091 1.15 3.31 2.556zm2.534-4.46h1.26v2.043h1.758v1.055h-1.758v4.468c0 .93.351 1.326 1.172 1.326.227 0 .351-.008.586-.03v1.062a4.22 4.22 0 0 1-.74.074c-1.626 0-2.278-.601-2.278-2.11v-4.79h-1.274v-1.055h1.274v-2.043z"/>
        </g>
        <g transform="translate(32 141)">
            <rect width="275" height="36" fill="#455CCC" rx="8"/>
            <path fill="#FFF" fill-rule="nonzero" d="M17.471 23h-4.123V12.431h4.043c1.94 0 3.127 1.018 3.127 2.637 0 1.099-.806 2.095-1.824 2.278v.117c1.443.183 2.359 1.172 2.359 2.57 0 1.861-1.333 2.967-3.582 2.967zm-2.805-9.404v3.39h2.11c1.596 0 2.41-.57 2.41-1.691 0-1.077-.763-1.7-2.074-1.7h-2.446zm0 8.24h2.607c1.59 0 2.425-.645 2.425-1.868s-.865-1.846-2.55-1.846h-2.482v3.713zm14.766-6.732V23H28.23v-1.238h-.117c-.395.88-1.238 1.377-2.446 1.377-1.772 0-2.695-1.055-2.695-2.922v-5.113h1.26v4.805c0 1.421.527 2.08 1.787 2.08 1.391 0 2.153-.827 2.153-2.212v-4.673h1.26zm3.047 10.752a3.73 3.73 0 0 1-.564-.044v-1.076c.153.03.351.036.527.036.725 0 1.12-.344 1.45-1.296l.147-.469-2.923-7.903h1.363l2.167 6.497h.118l2.16-6.497h1.34l-3.083 8.38c-.674 1.83-1.304 2.372-2.702 2.372zm10.327-9.777c-1.26 0-2.139.922-2.234 2.321h4.35c-.029-1.399-.864-2.321-2.116-2.321zm2.08 4.878h1.26c-.381 1.355-1.597 2.182-3.326 2.182-2.19 0-3.56-1.582-3.56-4.08 0-2.482 1.392-4.094 3.56-4.094 2.132 0 3.428 1.516 3.428 3.97v.483h-5.676v.06c.066 1.56.937 2.548 2.278 2.548 1.018 0 1.706-.374 2.036-1.07zM48.226 23v-7.896h1.2v1.172h.118c.234-.769 1.143-1.31 2.19-1.31.205 0 .469.014.63.036v1.26c-.103-.03-.557-.074-.806-.074-1.201 0-2.073.806-2.073 1.92V23h-1.26zm13.791-8.035c2.014 0 3.318 1.604 3.318 4.087 0 2.469-1.311 4.087-3.318 4.087-1.128 0-2.036-.49-2.468-1.326h-.117v3.824h-1.26V15.104h1.201v1.319h.117c.506-.908 1.45-1.458 2.527-1.458zm-.3 7.039c1.45 0 2.314-1.106 2.314-2.952 0-1.845-.864-2.951-2.307-2.951-1.428 0-2.329 1.135-2.329 2.951 0 1.81.9 2.952 2.322 2.952zm5.625.996v-7.896h1.26V23h-1.26zm.63-9.5a.881.881 0 0 1-.88-.878c0-.484.396-.88.88-.88.483 0 .879.396.879.88a.881.881 0 0 1-.88.878zm9.565 4.021h-1.274c-.205-.783-.901-1.42-2.036-1.42-1.421 0-2.315 1.135-2.315 2.922 0 1.824.908 2.98 2.315 2.98 1.062 0 1.801-.49 2.036-1.383h1.274c-.227 1.45-1.406 2.52-3.303 2.52-2.212 0-3.626-1.605-3.626-4.117 0-2.461 1.407-4.058 3.619-4.058 1.919 0 3.09 1.15 3.31 2.556zm3.31 1.033l3.428-3.45h1.546l-3.399 3.384L86.048 23h-1.604l-2.96-3.699-.754.703V23h-1.26V11.97h1.26v6.584h.118zm6.219-1.289c0-1.31 1.267-2.3 2.944-2.3 1.656 0 2.805.82 2.974 2.117h-1.245c-.169-.63-.784-1.047-1.736-1.047-.938 0-1.67.476-1.67 1.179 0 .542.44.879 1.37 1.106l1.215.293c1.487.359 2.205 1.003 2.205 2.138 0 1.414-1.37 2.388-3.164 2.388-1.758 0-2.966-.842-3.105-2.153h1.296c.212.666.842 1.091 1.853 1.091 1.062 0 1.824-.505 1.824-1.23 0-.542-.41-.909-1.253-1.114l-1.355-.33c-1.48-.358-2.153-.995-2.153-2.138zm14.7 4.768c1.296 0 2.255-.85 2.255-1.977v-.725l-2.124.139c-1.2.08-1.728.498-1.728 1.289 0 .805.681 1.274 1.597 1.274zm-.235 1.106c-1.53 0-2.666-.908-2.666-2.35 0-1.414 1.04-2.227 2.879-2.337l2.277-.14v-.717c0-.974-.607-1.51-1.787-1.51-.944 0-1.604.36-1.78.982H99.18c.169-1.267 1.414-2.102 3.098-2.102 1.927 0 3.003.99 3.003 2.63V23h-1.2v-1.165h-.118c-.513.843-1.377 1.304-2.432 1.304zm14.158-8.174c2.014 0 3.318 1.604 3.318 4.087 0 2.469-1.311 4.087-3.318 4.087-1.128 0-2.036-.49-2.468-1.326h-.117v3.824h-1.26V15.104h1.2v1.319h.118c.505-.908 1.45-1.458 2.527-1.458zm-.3 7.039c1.45 0 2.314-1.106 2.314-2.952 0-1.845-.864-2.951-2.307-2.951-1.428 0-2.33 1.135-2.33 2.951 0 1.81.902 2.952 2.323 2.952zm5.595.996v-7.896h1.202v1.172h.117c.234-.769 1.142-1.31 2.19-1.31.205 0 .468.014.63.036v1.26c-.103-.03-.557-.074-.806-.074-1.201 0-2.073.806-2.073 1.92V23h-1.26zm8.738-.996c1.494 0 2.337-1.084 2.337-2.952 0-1.875-.843-2.951-2.337-2.951-1.494 0-2.336 1.076-2.336 2.951 0 1.868.842 2.952 2.336 2.952zm0 1.135c-2.248 0-3.64-1.553-3.64-4.087 0-2.541 1.392-4.087 3.64-4.087 2.249 0 3.64 1.546 3.64 4.087 0 2.534-1.391 4.087-3.64 4.087zm8.54 0c-2.021 0-3.318-1.604-3.318-4.087 0-2.475 1.311-4.087 3.318-4.087 1.099 0 2.029.52 2.476 1.385h.11v-4.38h1.26V23h-1.202v-1.26h-.117c-.498.88-1.435 1.4-2.527 1.4zm.293-7.038c-1.435 0-2.307 1.113-2.307 2.951 0 1.846.864 2.952 2.307 2.952 1.436 0 2.322-1.128 2.322-2.952 0-1.809-.894-2.951-2.322-2.951zm12.385-.997V23h-1.2v-1.238h-.118c-.395.88-1.238 1.377-2.446 1.377-1.773 0-2.696-1.055-2.696-2.922v-5.113h1.26v4.805c0 1.421.528 2.08 1.787 2.08 1.392 0 2.154-.827 2.154-2.212v-4.673h1.26zm8.907 2.417h-1.275c-.205-.783-.9-1.42-2.036-1.42-1.42 0-2.314 1.135-2.314 2.922 0 1.824.908 2.98 2.314 2.98 1.062 0 1.802-.49 2.036-1.383h1.275c-.227 1.45-1.407 2.52-3.304 2.52-2.211 0-3.625-1.605-3.625-4.117 0-2.461 1.406-4.058 3.618-4.058 1.92 0 3.091 1.15 3.31 2.556zm2.534-4.46h1.26v2.043h1.757v1.055h-1.757v4.468c0 .93.351 1.326 1.172 1.326.227 0 .351-.008.585-.03v1.062a4.22 4.22 0 0 1-.74.074c-1.625 0-2.277-.601-2.277-2.11v-4.79h-1.275v-1.055h1.275v-2.043z"/>
        </g>
        <g fill-rule="nonzero">
            <path fill="#455CCC" d="M32.925 234.936c-.022 1.707.261 3.317.848 4.832a13.097 13.097 0 0 0 2.432 4.016 13.112 13.112 0 0 0 3.648 2.864 12.653 12.653 0 0 0 4.496 1.408c.426.043.88.09 1.36.144.48.053 1.008.085 1.584.096a37.556 37.556 0 0 0 4.352-.176c1.962-.192 3.424-.448 4.384-.768.96-.32 1.354-.501 1.184-.544-1.046-.192-1.92-.49-2.624-.896-.363-.235-.512-.55-.448-.944.064-.395.245-.773.544-1.136.96-1.11 1.744-2.4 2.352-3.872.608-1.472.922-3.061.944-4.768.021-1.792-.294-3.483-.944-5.072a13.544 13.544 0 0 0-2.656-4.176 12.697 12.697 0 0 0-3.952-2.848 11.75 11.75 0 0 0-4.864-1.088 11.606 11.606 0 0 0-4.88.976 12.622 12.622 0 0 0-4 2.768 13.361 13.361 0 0 0-2.72 4.128c-.672 1.579-1.019 3.264-1.04 5.056zm9.728 3.968a.836.836 0 0 1-.624-.288.948.948 0 0 1-.272-.672c0-.256.09-.475.272-.656a.858.858 0 0 1 .624-.272h8.928c.234 0 .437.09.608.272.17.181.256.4.256.656a.98.98 0 0 1-.256.672.788.788 0 0 1-.608.288h-8.928zm-3.552-5.6a.842.842 0 0 1-.64-.272.923.923 0 0 1-.256-.656c0-.256.085-.475.256-.656a.842.842 0 0 1 .64-.272h12.48c.234 0 .437.09.608.272.17.181.256.4.256.656a.923.923 0 0 1-.256.656.807.807 0 0 1-.608.272H39.1z"/>
            <path fill="#CCC" d="M93.075 234.936c.022 1.707-.261 3.317-.848 4.832a13.097 13.097 0 0 1-2.432 4.016 13.112 13.112 0 0 1-3.648 2.864 12.653 12.653 0 0 1-4.496 1.408c-.426.043-.88.09-1.36.144a17.32 17.32 0 0 1-1.584.096 37.556 37.556 0 0 1-4.352-.176c-1.962-.192-3.424-.448-4.384-.768-.96-.32-1.354-.501-1.184-.544 1.046-.192 1.92-.49 2.624-.896.363-.235.512-.55.448-.944-.064-.395-.245-.773-.544-1.136-.96-1.11-1.744-2.4-2.352-3.872-.608-1.472-.922-3.061-.944-4.768-.021-1.792.294-3.483.944-5.072a13.544 13.544 0 0 1 2.656-4.176 12.697 12.697 0 0 1 3.952-2.848 11.75 11.75 0 0 1 4.864-1.088 11.606 11.606 0 0 1 4.88.976 12.622 12.622 0 0 1 4 2.768 13.361 13.361 0 0 1 2.72 4.128c.672 1.579 1.019 3.264 1.04 5.056zm-9.728 3.968a.836.836 0 0 0 .624-.288.948.948 0 0 0 .272-.672.894.894 0 0 0-.272-.656.858.858 0 0 0-.624-.272H74.42a.807.807 0 0 0-.608.272.923.923 0 0 0-.256.656c0 .256.086.48.256.672.17.192.374.288.608.288h8.928zm3.552-5.6c.256 0 .47-.09.64-.272.17-.181.256-.4.256-.656a.923.923 0 0 0-.256-.656.842.842 0 0 0-.64-.272H74.42a.807.807 0 0 0-.608.272.923.923 0 0 0-.256.656c0 .256.086.475.256.656.17.181.374.272.608.272H86.9z"/>
            <path fill="#191919" d="M109.413 240h-1.319v-9.382h-3.406v-1.187h8.13v1.187h-3.405V240zm6.613-.967c1.297 0 2.256-.85 2.256-1.977v-.725l-2.124.139c-1.201.08-1.728.498-1.728 1.289 0 .805.68 1.274 1.596 1.274zm-.234 1.106c-1.53 0-2.666-.908-2.666-2.35 0-1.414 1.04-2.227 2.878-2.337l2.278-.14v-.717c0-.974-.608-1.51-1.787-1.51-.945 0-1.604.36-1.78.982h-1.274c.168-1.267 1.413-2.102 3.098-2.102 1.926 0 3.003.99 3.003 2.63V240h-1.201v-1.165h-.117c-.513.843-1.377 1.304-2.432 1.304zm6.152-.139v-11.03h1.26V240h-1.26zm5.157-4.446l3.427-3.45h1.546l-3.399 3.384 3.626 4.512h-1.604l-2.96-3.699-.754.703V240h-1.26v-11.03h1.26v6.584h.118zm11.455-5.493h1.26v2.043h1.757v1.055h-1.758v4.468c0 .93.352 1.326 1.172 1.326.227 0 .352-.008.586-.03v1.062a4.22 4.22 0 0 1-.74.074c-1.625 0-2.277-.601-2.277-2.11v-4.79h-1.275v-1.055h1.275v-2.043zm8.056 8.943c1.494 0 2.337-1.084 2.337-2.952 0-1.875-.843-2.951-2.337-2.951-1.494 0-2.336 1.076-2.336 2.951 0 1.868.842 2.952 2.336 2.952zm0 1.135c-2.248 0-3.64-1.553-3.64-4.087 0-2.541 1.392-4.087 3.64-4.087 2.249 0 3.64 1.546 3.64 4.087 0 2.534-1.391 4.087-3.64 4.087zm13-7.06c-1.259 0-2.138.922-2.233 2.321h4.35c-.029-1.399-.864-2.321-2.116-2.321zm2.08 4.878h1.26c-.38 1.355-1.596 2.182-3.325 2.182-2.19 0-3.56-1.582-3.56-4.08 0-2.482 1.392-4.094 3.56-4.094 2.132 0 3.428 1.516 3.428 3.97v.483h-5.676v.06c.066 1.56.937 2.548 2.278 2.548 1.018 0 1.706-.374 2.036-1.07zm5.772 1.076c1.297 0 2.256-.85 2.256-1.977v-.725l-2.124.139c-1.201.08-1.728.498-1.728 1.289 0 .805.68 1.274 1.596 1.274zm-.234 1.106c-1.53 0-2.666-.908-2.666-2.35 0-1.414 1.04-2.227 2.878-2.337l2.278-.14v-.717c0-.974-.608-1.51-1.787-1.51-.945 0-1.604.36-1.78.982h-1.274c.168-1.267 1.413-2.102 3.098-2.102 1.926 0 3.003.99 3.003 2.63V240h-1.201v-1.165h-.117c-.513.843-1.377 1.304-2.432 1.304zm12.612-5.618h-1.274c-.205-.783-.901-1.42-2.036-1.42-1.421 0-2.315 1.135-2.315 2.922 0 1.824.908 2.98 2.315 2.98 1.062 0 1.801-.49 2.036-1.383h1.274c-.227 1.45-1.406 2.52-3.303 2.52-2.212 0-3.625-1.605-3.625-4.117 0-2.461 1.406-4.058 3.618-4.058 1.919 0 3.09 1.15 3.31 2.556zm1.934 5.479v-11.03h1.26v4.38h.117c.395-.872 1.223-1.385 2.431-1.385 1.67 0 2.725 1.07 2.725 2.923V240h-1.26v-4.805c0-1.399-.63-2.094-1.823-2.094-1.414 0-2.19.893-2.19 2.226V240h-1.26zm16.31-.996c1.495 0 2.337-1.084 2.337-2.952 0-1.875-.842-2.951-2.336-2.951-1.494 0-2.337 1.076-2.337 2.951 0 1.868.843 2.952 2.337 2.952zm0 1.135c-2.248 0-3.64-1.553-3.64-4.087 0-2.541 1.392-4.087 3.64-4.087 2.25 0 3.641 1.546 3.641 4.087 0 2.534-1.392 4.087-3.64 4.087zm6.146-10.078h1.26v2.043h1.758v1.055h-1.758v4.468c0 .93.351 1.326 1.172 1.326.227 0 .351-.008.586-.03v1.062a4.22 4.22 0 0 1-.74.074c-1.626 0-2.278-.601-2.278-2.11v-4.79h-1.274v-1.055h1.274v-2.043zm4.995 9.939v-11.03h1.26v4.38h.117c.396-.872 1.223-1.385 2.432-1.385 1.67 0 2.724 1.07 2.724 2.923V240h-1.26v-4.805c0-1.399-.63-2.094-1.823-2.094-1.414 0-2.19.893-2.19 2.226V240h-1.26zm11.982-6.921c-1.26 0-2.138.922-2.233 2.321h4.35c-.03-1.399-.864-2.321-2.117-2.321zm2.08 4.878h1.26c-.38 1.355-1.596 2.182-3.325 2.182-2.19 0-3.56-1.582-3.56-4.08 0-2.482 1.392-4.094 3.56-4.094 2.131 0 3.428 1.516 3.428 3.97v.483h-5.676v.06c.066 1.56.937 2.548 2.277 2.548 1.018 0 1.707-.374 2.037-1.07zm3.34 2.043v-7.896h1.202v1.172h.117c.234-.769 1.142-1.31 2.19-1.31.205 0 .468.014.63.036v1.26c-.103-.03-.557-.074-.806-.074-1.201 0-2.073.806-2.073 1.92V240h-1.26z"/>
        </g>
        <g transform="translate(32 293)">
            <rect width="275" height="108" fill="#455CCC" rx="8"/>
            <path fill="#FFF" fill-rule="nonzero" d="M17.471 23h-4.123V12.431h4.043c1.94 0 3.127 1.018 3.127 2.637 0 1.099-.806 2.095-1.824 2.278v.117c1.443.183 2.359 1.172 2.359 2.57 0 1.861-1.333 2.967-3.582 2.967zm-2.805-9.404v3.39h2.11c1.596 0 2.41-.57 2.41-1.691 0-1.077-.763-1.7-2.074-1.7h-2.446zm0 8.24h2.607c1.59 0 2.425-.645 2.425-1.868s-.865-1.846-2.55-1.846h-2.482v3.713zm14.766-6.732V23H28.23v-1.238h-.117c-.395.88-1.238 1.377-2.446 1.377-1.772 0-2.695-1.055-2.695-2.922v-5.113h1.26v4.805c0 1.421.527 2.08 1.787 2.08 1.391 0 2.153-.827 2.153-2.212v-4.673h1.26zm3.047 10.752a3.73 3.73 0 0 1-.564-.044v-1.076c.153.03.351.036.527.036.725 0 1.12-.344 1.45-1.296l.147-.469-2.923-7.903h1.363l2.167 6.497h.118l2.16-6.497h1.34l-3.083 8.38c-.674 1.83-1.304 2.372-2.702 2.372zm10.327-9.777c-1.26 0-2.139.922-2.234 2.321h4.35c-.029-1.399-.864-2.321-2.116-2.321zm2.08 4.878h1.26c-.381 1.355-1.597 2.182-3.326 2.182-2.19 0-3.56-1.582-3.56-4.08 0-2.482 1.392-4.094 3.56-4.094 2.132 0 3.428 1.516 3.428 3.97v.483h-5.676v.06c.066 1.56.937 2.548 2.278 2.548 1.018 0 1.706-.374 2.036-1.07zM48.226 23v-7.896h1.2v1.172h.118c.234-.769 1.143-1.31 2.19-1.31.205 0 .469.014.63.036v1.26c-.103-.03-.557-.074-.806-.074-1.201 0-2.073.806-2.073 1.92V23h-1.26zm13.791-8.035c2.014 0 3.318 1.604 3.318 4.087 0 2.469-1.311 4.087-3.318 4.087-1.128 0-2.036-.49-2.468-1.326h-.117v3.824h-1.26V15.104h1.201v1.319h.117c.506-.908 1.45-1.458 2.527-1.458zm-.3 7.039c1.45 0 2.314-1.106 2.314-2.952 0-1.845-.864-2.951-2.307-2.951-1.428 0-2.329 1.135-2.329 2.951 0 1.81.9 2.952 2.322 2.952zm8.027.03c1.297 0 2.256-.85 2.256-1.978v-.725l-2.124.139c-1.201.08-1.729.498-1.729 1.289 0 .805.682 1.274 1.597 1.274zm-.234 1.105c-1.531 0-2.666-.908-2.666-2.35 0-1.414 1.04-2.227 2.878-2.337l2.278-.14v-.717c0-.974-.608-1.51-1.787-1.51-.945 0-1.604.36-1.78.982H67.16c.168-1.267 1.413-2.102 3.098-2.102 1.926 0 3.003.99 3.003 2.63V23h-1.201v-1.165h-.118c-.512.843-1.377 1.304-2.431 1.304zm6.46 2.717a3.73 3.73 0 0 1-.564-.044v-1.076c.154.03.351.036.527.036.725 0 1.12-.344 1.45-1.296l.147-.469-2.923-7.903h1.363l2.168 6.497h.117l2.16-6.497h1.34l-3.083 8.38c-.673 1.83-1.303 2.372-2.702 2.372zm13.22-13.425v6.848c0 1.597 1.047 2.754 2.878 2.754 1.831 0 2.879-1.157 2.879-2.754v-6.848h1.318v6.936c0 2.256-1.575 3.882-4.197 3.882s-4.196-1.626-4.196-3.882v-6.936h1.318zm9.302 7.808h1.333c.16 1.106 1.216 1.809 2.717 1.809 1.42 0 2.468-.77 2.468-1.817 0-.9-.659-1.472-2.116-1.838l-1.355-.351c-1.912-.484-2.74-1.348-2.74-2.85 0-1.794 1.502-3.01 3.736-3.01 2.043 0 3.567 1.216 3.676 2.922h-1.325c-.183-1.083-1.077-1.728-2.395-1.728-1.407 0-2.337.703-2.337 1.772 0 .828.579 1.304 2.036 1.678l1.106.293c2.19.549 3.07 1.399 3.07 2.951 0 1.941-1.532 3.179-3.949 3.179-2.24 0-3.786-1.186-3.925-3.01zm10.063-7.808h3.626c3.134 0 4.987 1.956 4.987 5.28 0 3.333-1.845 5.289-4.987 5.289h-3.626V12.431zm1.319 1.187v8.195h2.219c2.358 0 3.728-1.508 3.728-4.086 0-2.586-1.384-4.11-3.728-4.11h-2.22zm14.018-1.436c3.003 0 4.834 2.139 4.834 5.53 0 3.376-1.816 5.537-4.834 5.537-3.032 0-4.856-2.153-4.856-5.537 0-3.399 1.868-5.53 4.856-5.53zm0 1.216c-2.153 0-3.5 1.67-3.5 4.314 0 2.622 1.303 4.321 3.5 4.321 2.168 0 3.48-1.699 3.48-4.321 0-2.644-1.32-4.314-3.48-4.314zm6.775 3.867c0-1.31 1.267-2.3 2.944-2.3 1.656 0 2.806.82 2.974 2.117h-1.245c-.169-.63-.784-1.047-1.736-1.047-.937 0-1.67.476-1.67 1.179 0 .542.44.879 1.37 1.106l1.216.293c1.486.359 2.204 1.003 2.204 2.138 0 1.414-1.37 2.388-3.164 2.388-1.758 0-2.966-.842-3.105-2.153h1.296c.212.666.842 1.091 1.853 1.091 1.062 0 1.824-.505 1.824-1.23 0-.542-.41-.909-1.253-1.114l-1.355-.33c-1.48-.358-2.153-.995-2.153-2.138zm12.795-4.204h1.26v2.043h1.758v1.055h-1.758v4.468c0 .93.352 1.326 1.172 1.326.227 0 .352-.008.586-.03v1.062a4.22 4.22 0 0 1-.74.074c-1.626 0-2.278-.601-2.278-2.11v-4.79h-1.274v-1.055h1.274v-2.043zm8.057 8.943c1.494 0 2.336-1.084 2.336-2.952 0-1.875-.842-2.951-2.336-2.951-1.494 0-2.336 1.076-2.336 2.951 0 1.868.842 2.952 2.336 2.952zm0 1.135c-2.248 0-3.64-1.553-3.64-4.087 0-2.541 1.392-4.087 3.64-4.087 2.249 0 3.64 1.546 3.64 4.087 0 2.534-1.391 4.087-3.64 4.087zm10.378-10.078h1.26v2.043h1.758v1.055h-1.758v4.468c0 .93.352 1.326 1.172 1.326.227 0 .352-.008.586-.03v1.062a4.22 4.22 0 0 1-.74.074c-1.626 0-2.278-.601-2.278-2.11v-4.79h-1.274v-1.055h1.274v-2.043zM166.893 23V11.97h1.26v4.38h.117c.395-.872 1.223-1.385 2.431-1.385 1.67 0 2.725 1.07 2.725 2.923V23h-1.26v-4.805c0-1.399-.63-2.094-1.824-2.094-1.413 0-2.19.893-2.19 2.226V23h-1.26zm11.982-6.921c-1.26 0-2.139.922-2.234 2.321h4.35c-.029-1.399-.864-2.321-2.116-2.321zm2.08 4.878h1.26c-.381 1.355-1.597 2.182-3.325 2.182-2.19 0-3.56-1.582-3.56-4.08 0-2.482 1.392-4.094 3.56-4.094 2.131 0 3.427 1.516 3.427 3.97v.483h-5.676v.06c.066 1.56.938 2.548 2.278 2.548 1.018 0 1.706-.374 2.036-1.07zm7.39-3.692c0-1.31 1.267-2.3 2.945-2.3 1.655 0 2.805.82 2.973 2.117h-1.245c-.168-.63-.784-1.047-1.736-1.047-.937 0-1.67.476-1.67 1.179 0 .542.44.879 1.37 1.106l1.216.293c1.487.359 2.204 1.003 2.204 2.138 0 1.414-1.37 2.388-3.164 2.388-1.758 0-2.966-.842-3.105-2.153h1.296c.213.666.842 1.091 1.853 1.091 1.062 0 1.824-.505 1.824-1.23 0-.542-.41-.909-1.252-1.114l-1.355-.33c-1.48-.358-2.154-.995-2.154-2.138zM196.38 23v-7.896h1.201v1.246h.117c.36-.88 1.15-1.385 2.205-1.385 1.07 0 1.816.564 2.182 1.385h.118c.424-.835 1.325-1.385 2.417-1.385 1.611 0 2.512.923 2.512 2.578V23h-1.26v-5.164c0-1.164-.55-1.735-1.663-1.735-1.098 0-1.83.82-1.83 1.823V23h-1.26v-5.361c0-.938-.652-1.538-1.648-1.538-1.033 0-1.831.893-1.831 2.006V23h-1.26zm15.483-.967c1.297 0 2.256-.85 2.256-1.977v-.725l-2.124.139c-1.201.08-1.728.498-1.728 1.289 0 .805.68 1.274 1.596 1.274zm-.234 1.106c-1.53 0-2.666-.908-2.666-2.35 0-1.414 1.04-2.227 2.878-2.337l2.278-.14v-.717c0-.974-.608-1.51-1.787-1.51-.945 0-1.604.36-1.78.982h-1.274c.168-1.267 1.413-2.102 3.098-2.102 1.926 0 3.003.99 3.003 2.63V23h-1.201v-1.165h-.117c-.513.843-1.377 1.304-2.432 1.304zm6.079-.139v-7.896h1.201v1.172h.117c.235-.769 1.143-1.31 2.19-1.31.205 0 .47.014.63.036v1.26c-.102-.03-.556-.074-.805-.074-1.202 0-2.073.806-2.073 1.92V23h-1.26zm6.68-9.939h1.26v2.043h1.757v1.055h-1.758v4.468c0 .93.352 1.326 1.172 1.326.227 0 .352-.008.586-.03v1.062a4.22 4.22 0 0 1-.74.074c-1.625 0-2.277-.601-2.277-2.11v-4.79h-1.275v-1.055h1.275v-2.043zM19.72 35.521h-1.275c-.205-.783-.9-1.42-2.036-1.42-1.42 0-2.314 1.135-2.314 2.922 0 1.824.908 2.98 2.314 2.98 1.062 0 1.802-.49 2.036-1.383h1.275c-.227 1.45-1.407 2.52-3.303 2.52-2.212 0-3.626-1.605-3.626-4.117 0-2.461 1.406-4.058 3.618-4.058 1.92 0 3.091 1.15 3.31 2.556zm5.105 4.483c1.494 0 2.336-1.084 2.336-2.952 0-1.875-.842-2.951-2.336-2.951-1.494 0-2.337 1.076-2.337 2.951 0 1.868.843 2.952 2.337 2.952zm0 1.135c-2.249 0-3.64-1.553-3.64-4.087 0-2.541 1.391-4.087 3.64-4.087 2.248 0 3.64 1.546 3.64 4.087 0 2.534-1.392 4.087-3.64 4.087zM30.442 41v-7.896h1.202v1.246h.117c.395-.872 1.164-1.385 2.373-1.385 1.772 0 2.761 1.048 2.761 2.923V41h-1.26v-4.805c0-1.42-.6-2.094-1.86-2.094-1.26 0-2.073.842-2.073 2.226V41h-1.26zm9.28-9.939h1.26v2.043h1.758v1.055h-1.758v4.468c0 .93.351 1.326 1.172 1.326.227 0 .351-.008.586-.03v1.062a4.22 4.22 0 0 1-.74.074c-1.626 0-2.278-.601-2.278-2.11v-4.79h-1.274v-1.055h1.274v-2.043zM44.644 41v-7.896h1.201v1.172h.117c.235-.769 1.143-1.31 2.19-1.31.205 0 .47.014.63.036v1.26c-.102-.03-.556-.074-.805-.074-1.202 0-2.073.806-2.073 1.92V41h-1.26zm8.145-.967c1.296 0 2.255-.85 2.255-1.977v-.725l-2.124.139c-1.2.08-1.728.498-1.728 1.289 0 .805.681 1.274 1.597 1.274zm-.235 1.106c-1.53 0-2.666-.908-2.666-2.35 0-1.414 1.04-2.227 2.879-2.337l2.277-.14v-.717c0-.974-.607-1.51-1.787-1.51-.944 0-1.604.36-1.78.982h-1.274c.169-1.267 1.414-2.102 3.098-2.102 1.927 0 3.003.99 3.003 2.63V41h-1.201v-1.165h-.117c-.513.843-1.377 1.304-2.432 1.304zm12.613-5.618h-1.275c-.205-.783-.9-1.42-2.036-1.42-1.42 0-2.314 1.135-2.314 2.922 0 1.824.908 2.98 2.314 2.98 1.062 0 1.802-.49 2.036-1.383h1.275c-.228 1.45-1.407 2.52-3.304 2.52-2.212 0-3.625-1.605-3.625-4.117 0-2.461 1.406-4.058 3.618-4.058 1.919 0 3.09 1.15 3.31 2.556zm2.534-4.46h1.26v2.043h1.757v1.055H68.96v4.468c0 .93.352 1.326 1.172 1.326.227 0 .352-.008.586-.03v1.062a4.22 4.22 0 0 1-.74.074c-1.625 0-2.277-.601-2.277-2.11v-4.79h-1.275v-1.055h1.275v-2.043zM17.413 59h-1.319v-9.382h-3.406V48.43h8.13v1.187h-3.405V59zm5.354 0V47.97h1.26v4.38h.117c.395-.872 1.223-1.385 2.431-1.385 1.67 0 2.725 1.07 2.725 2.923V59h-1.26v-4.805c0-1.399-.63-2.094-1.824-2.094-1.413 0-2.19.893-2.19 2.226V59h-1.26zm11.982-6.921c-1.26 0-2.139.922-2.234 2.321h4.35c-.029-1.399-.864-2.321-2.116-2.321zm2.08 4.878h1.26c-.381 1.355-1.597 2.182-3.325 2.182-2.19 0-3.56-1.582-3.56-4.08 0-2.482 1.392-4.094 3.56-4.094 2.131 0 3.427 1.516 3.427 3.97v.483h-5.676v.06c.066 1.56.938 2.548 2.278 2.548 1.018 0 1.707-.374 2.036-1.07zm11.5 2.182c-1.1 0-2.037-.52-2.535-1.399h-.117V59h-1.201V47.97h1.26v4.38h.117c.432-.85 1.391-1.385 2.475-1.385 2.007 0 3.31 1.604 3.31 4.087 0 2.469-1.31 4.087-3.31 4.087zm-.294-7.038c-1.435 0-2.329 1.128-2.329 2.951 0 1.824.894 2.952 2.33 2.952 1.442 0 2.299-1.106 2.299-2.952 0-1.845-.857-2.951-2.3-2.951zm11.968-.997V59h-1.201v-1.238h-.117c-.396.88-1.238 1.377-2.447 1.377-1.772 0-2.695-1.055-2.695-2.922v-5.113h1.26v4.805c0 1.421.527 2.08 1.787 2.08 1.391 0 2.153-.827 2.153-2.212v-4.673h1.26zm3.047 10.752a3.73 3.73 0 0 1-.564-.044v-1.076c.154.03.351.036.527.036.725 0 1.12-.344 1.45-1.296l.147-.469-2.922-7.903h1.362l2.168 6.497h.117l2.16-6.497h1.34l-3.083 8.38c-.673 1.83-1.303 2.372-2.702 2.372zm10.327-9.777c-1.26 0-2.139.922-2.234 2.321h4.35c-.029-1.399-.864-2.321-2.116-2.321zm2.08 4.878h1.26c-.381 1.355-1.597 2.182-3.325 2.182-2.19 0-3.56-1.582-3.56-4.08 0-2.482 1.392-4.094 3.56-4.094 2.13 0 3.427 1.516 3.427 3.97v.483h-5.676v.06c.066 1.56.938 2.548 2.278 2.548 1.018 0 1.706-.374 2.036-1.07zM78.797 59v-7.896h1.201v1.172h.117c.235-.769 1.143-1.31 2.19-1.31.205 0 .469.014.63.036v1.26c-.102-.03-.557-.074-.806-.074-1.2 0-2.072.806-2.072 1.92V59h-1.26zm16.48-5.479h-1.275c-.205-.783-.9-1.42-2.036-1.42-1.421 0-2.315 1.135-2.315 2.922 0 1.824.909 2.98 2.315 2.98 1.062 0 1.802-.49 2.036-1.383h1.274c-.227 1.45-1.406 2.52-3.303 2.52-2.212 0-3.625-1.605-3.625-4.117 0-2.461 1.406-4.058 3.618-4.058 1.919 0 3.09 1.15 3.31 2.556zm4.291 4.512c1.297 0 2.256-.85 2.256-1.977v-.725l-2.124.139c-1.201.08-1.728.498-1.728 1.289 0 .805.68 1.274 1.596 1.274zm-.234 1.106c-1.53 0-2.666-.908-2.666-2.35 0-1.414 1.04-2.227 2.878-2.337l2.278-.14v-.717c0-.974-.608-1.51-1.787-1.51-.945 0-1.604.36-1.78.982h-1.274c.168-1.267 1.413-2.102 3.098-2.102 1.926 0 3.003.99 3.003 2.63V59h-1.201v-1.165h-.117c-.513.843-1.377 1.304-2.432 1.304zm6.08-.139v-7.896h1.2v1.246h.117c.396-.872 1.165-1.385 2.373-1.385 1.773 0 2.762 1.048 2.762 2.923V59h-1.26v-4.805c0-1.42-.6-2.094-1.86-2.094-1.26 0-2.073.842-2.073 2.226V59h-1.26zm13.512 0v-6.84h-1.31v-1.056h1.31v-.769c0-1.618.843-2.292 2.366-2.292.249 0 .469.022.776.073v1.055a3.763 3.763 0 0 0-.703-.066c-.754 0-1.179.38-1.179 1.267v.732h1.81v1.055h-1.81V59h-1.26zm4.93 0v-7.896h1.26V59h-1.26zm.63-9.5a.881.881 0 0 1-.88-.878c0-.484.396-.88.88-.88.483 0 .878.396.878.88a.881.881 0 0 1-.879.878zm3.105 9.5V47.97h1.26V59h-1.26zm3.78 0V47.97h1.259V59h-1.26zm7.968 0v-7.896h1.26V59h-1.26zm.63-9.5a.881.881 0 0 1-.88-.878c0-.484.396-.88.88-.88.483 0 .879.396.879.88a.881.881 0 0 1-.88.878zM143 59v-7.896h1.201v1.246h.117c.396-.872 1.165-1.385 2.373-1.385 1.773 0 2.762 1.048 2.762 2.923V59h-1.26v-4.805c0-1.42-.6-2.094-1.86-2.094-1.26 0-2.073.842-2.073 2.226V59H143zm13.513-9.939h1.26v2.043h1.758v1.055h-1.758v4.468c0 .93.351 1.326 1.172 1.326.227 0 .351-.008.586-.03v1.062a4.22 4.22 0 0 1-.74.074c-1.626 0-2.278-.601-2.278-2.11v-4.79h-1.274v-1.055h1.274v-2.043zM161.51 59V47.97h1.26v4.38h.117c.396-.872 1.223-1.385 2.432-1.385 1.67 0 2.724 1.07 2.724 2.923V59h-1.26v-4.805c0-1.399-.63-2.094-1.823-2.094-1.414 0-2.19.893-2.19 2.226V59h-1.26zm11.983-6.921c-1.26 0-2.139.922-2.234 2.321h4.35c-.029-1.399-.864-2.321-2.116-2.321zm2.08 4.878h1.26c-.381 1.355-1.597 2.182-3.326 2.182-2.19 0-3.56-1.582-3.56-4.08 0-2.482 1.392-4.094 3.56-4.094 2.132 0 3.428 1.516 3.428 3.97v.483h-5.676v.06c.066 1.56.937 2.548 2.278 2.548 1.018 0 1.706-.374 2.036-1.07zm10.495 2.182c-2.021 0-3.317-1.604-3.317-4.087 0-2.475 1.31-4.087 3.317-4.087 1.099 0 2.03.52 2.476 1.385h.11v-4.38h1.26V59h-1.202v-1.26h-.117c-.498.88-1.435 1.4-2.527 1.4zm.293-7.038c-1.435 0-2.307 1.113-2.307 2.951 0 1.846.864 2.952 2.307 2.952 1.436 0 2.322-1.128 2.322-2.952 0-1.809-.893-2.951-2.322-2.951zm9.148-.022c-1.26 0-2.138.922-2.234 2.321h4.351c-.03-1.399-.864-2.321-2.117-2.321zm2.08 4.878h1.26c-.38 1.355-1.597 2.182-3.325 2.182-2.19 0-3.56-1.582-3.56-4.08 0-2.482 1.392-4.094 3.56-4.094 2.131 0 3.428 1.516 3.428 3.97v.483h-5.677v.06c.066 1.56.938 2.548 2.278 2.548 1.018 0 1.707-.374 2.036-1.07zM201.001 59V47.97h1.26V59h-1.26zm3.736 0v-7.896h1.26V59h-1.26zm.63-9.5a.881.881 0 0 1-.88-.878c0-.484.396-.88.88-.88.483 0 .879.396.879.88a.881.881 0 0 1-.88.878zm2.343 1.604h1.348l2.16 6.504h.118l2.16-6.504h1.348L211.922 59h-1.29l-2.922-7.896zm11.675.975c-1.26 0-2.138.922-2.234 2.321h4.351c-.03-1.399-.864-2.321-2.117-2.321zm2.08 4.878h1.26c-.38 1.355-1.597 2.182-3.325 2.182-2.19 0-3.56-1.582-3.56-4.08 0-2.482 1.392-4.094 3.56-4.094 2.131 0 3.428 1.516 3.428 3.97v.483h-5.677v.06c.066 1.56.938 2.548 2.278 2.548 1.018 0 1.707-.374 2.036-1.07zm3.34 2.043v-7.896h1.201v1.172h.118c.234-.769 1.142-1.31 2.19-1.31.205 0 .468.014.63.036v1.26c-.103-.03-.557-.074-.806-.074-1.201 0-2.073.806-2.073 1.92V59h-1.26zm6.387 2.856a3.73 3.73 0 0 1-.564-.044v-1.076c.154.03.351.036.527.036.725 0 1.12-.344 1.45-1.296l.147-.469-2.922-7.903h1.362l2.168 6.497h.117l2.16-6.497h1.341l-3.083 8.38c-.674 1.83-1.304 2.372-2.703 2.372zM13.216 77v-7.896h1.26V77h-1.26zm.63-9.5a.881.881 0 0 1-.88-.878c0-.484.396-.88.88-.88.483 0 .879.396.879.88a.881.881 0 0 1-.88.878zm3.032 9.5v-7.896h1.201v1.246h.117c.396-.872 1.165-1.385 2.373-1.385 1.773 0 2.762 1.048 2.762 2.923V77h-1.26v-4.805c0-1.42-.6-2.094-1.86-2.094-1.26 0-2.073.842-2.073 2.226V77h-1.26zm9.28 0v-6.84h-1.311v-1.056h1.31v-.769c0-1.618.843-2.292 2.366-2.292.25 0 .47.022.777.073v1.055a3.763 3.763 0 0 0-.703-.066c-.755 0-1.18.38-1.18 1.267v.732h1.81v1.055h-1.81V77h-1.26zm7.815-.996c1.494 0 2.336-1.084 2.336-2.952 0-1.875-.842-2.951-2.336-2.951-1.494 0-2.337 1.076-2.337 2.951 0 1.868.843 2.952 2.337 2.952zm0 1.135c-2.249 0-3.64-1.553-3.64-4.087 0-2.541 1.391-4.087 3.64-4.087 2.248 0 3.64 1.546 3.64 4.087 0 2.534-1.392 4.087-3.64 4.087zm9.88-.139v-7.896h1.26V77h-1.26zm.63-9.5a.881.881 0 0 1-.879-.878c0-.484.396-.88.879-.88s.879.396.879.88a.881.881 0 0 1-.88.878zm3.032 9.5v-7.896h1.201v1.246h.117c.396-.872 1.165-1.385 2.374-1.385 1.772 0 2.76 1.048 2.76 2.923V77h-1.259v-4.805c0-1.42-.6-2.094-1.86-2.094-1.26 0-2.073.842-2.073 2.226V77h-1.26zm13.513-9.939h1.26v2.043h1.758v1.055h-1.758v4.468c0 .93.352 1.326 1.172 1.326.227 0 .352-.008.586-.03v1.062a4.22 4.22 0 0 1-.74.074c-1.626 0-2.278-.601-2.278-2.11v-4.79h-1.274v-1.055h1.274v-2.043zM66.023 77V65.97h1.26v4.38h.117c.396-.872 1.224-1.385 2.432-1.385 1.67 0 2.725 1.07 2.725 2.923V77h-1.26v-4.805c0-1.399-.63-2.094-1.824-2.094-1.413 0-2.19.893-2.19 2.226V77h-1.26zm11.983-6.921c-1.26 0-2.139.922-2.234 2.321h4.35c-.029-1.399-.864-2.321-2.116-2.321zm2.08 4.878h1.26c-.381 1.355-1.597 2.182-3.325 2.182-2.19 0-3.56-1.582-3.56-4.08 0-2.482 1.392-4.094 3.56-4.094 2.13 0 3.427 1.516 3.427 3.97v.483h-5.676v.06c.066 1.56.937 2.548 2.278 2.548 1.018 0 1.706-.374 2.036-1.07zM87.659 77v-7.896h1.201v1.246h.118c.395-.872 1.164-1.385 2.373-1.385 1.772 0 2.76 1.048 2.76 2.923V77h-1.259v-4.805c0-1.42-.6-2.094-1.86-2.094-1.26 0-2.073.842-2.073 2.226V77h-1.26zm11.997-.996c1.494 0 2.337-1.084 2.337-2.952 0-1.875-.843-2.951-2.337-2.951-1.494 0-2.336 1.076-2.336 2.951 0 1.868.842 2.952 2.336 2.952zm0 1.135c-2.248 0-3.64-1.553-3.64-4.087 0-2.541 1.392-4.087 3.64-4.087 2.249 0 3.64 1.546 3.64 4.087 0 2.534-1.391 4.087-3.64 4.087zm6.145-10.078h1.26v2.043h1.758v1.055h-1.758v4.468c0 .93.352 1.326 1.172 1.326.227 0 .351-.008.586-.03v1.062a4.22 4.22 0 0 1-.74.074c-1.626 0-2.278-.601-2.278-2.11v-4.79h-1.274v-1.055h1.274v-2.043zm7.962 3.018c-1.26 0-2.139.922-2.234 2.321h4.35c-.029-1.399-.864-2.321-2.116-2.321zm2.08 4.878h1.26c-.381 1.355-1.597 2.182-3.326 2.182-2.19 0-3.56-1.582-3.56-4.08 0-2.482 1.392-4.094 3.56-4.094 2.132 0 3.428 1.516 3.428 3.97v.483h-5.676v.06c.066 1.56.937 2.548 2.278 2.548 1.018 0 1.706-.374 2.036-1.07zm11.499 2.182c-1.099 0-2.036-.52-2.534-1.399h-.118V77h-1.2V65.97h1.259v4.38h.117c.432-.85 1.392-1.385 2.476-1.385 2.007 0 3.31 1.604 3.31 4.087 0 2.469-1.31 4.087-3.31 4.087zm-.293-7.038c-1.436 0-2.33 1.128-2.33 2.951 0 1.824.894 2.952 2.33 2.952 1.443 0 2.3-1.106 2.3-2.952 0-1.845-.857-2.951-2.3-2.951zm8.826 5.903c1.494 0 2.336-1.084 2.336-2.952 0-1.875-.842-2.951-2.336-2.951-1.495 0-2.337 1.076-2.337 2.951 0 1.868.842 2.952 2.337 2.952zm0 1.135c-2.249 0-3.64-1.553-3.64-4.087 0-2.541 1.391-4.087 3.64-4.087 2.248 0 3.64 1.546 3.64 4.087 0 2.534-1.392 4.087-3.64 4.087zm8.049-3.12h-.117L141.932 77h-1.429l2.703-3.948-2.732-3.948h1.502l1.875 2.938h.117l1.853-2.938h1.428l-2.68 3.897L147.285 77h-1.494l-1.868-2.981zm12.56 1.985c1.495 0 2.337-1.084 2.337-2.952 0-1.875-.842-2.951-2.336-2.951-1.494 0-2.337 1.076-2.337 2.951 0 1.868.843 2.952 2.337 2.952zm0 1.135c-2.248 0-3.64-1.553-3.64-4.087 0-2.541 1.392-4.087 3.64-4.087 2.25 0 3.641 1.546 3.641 4.087 0 2.534-1.392 4.087-3.64 4.087zm5.619-.139v-7.896h1.2v1.172h.118c.234-.769 1.142-1.31 2.19-1.31.205 0 .469.014.63.036v1.26c-.103-.03-.557-.074-.806-.074-1.201 0-2.073.806-2.073 1.92V77h-1.26zm16.479-5.479h-1.274c-.205-.783-.901-1.42-2.037-1.42-1.42 0-2.314 1.135-2.314 2.922 0 1.824.908 2.98 2.314 2.98 1.062 0 1.802-.49 2.037-1.383h1.274c-.227 1.45-1.406 2.52-3.303 2.52-2.212 0-3.626-1.605-3.626-4.117 0-2.461 1.407-4.058 3.618-4.058 1.92 0 3.091 1.15 3.311 2.556zm5.105 4.483c1.494 0 2.336-1.084 2.336-2.952 0-1.875-.842-2.951-2.336-2.951-1.494 0-2.336 1.076-2.336 2.951 0 1.868.842 2.952 2.336 2.952zm0 1.135c-2.249 0-3.64-1.553-3.64-4.087 0-2.541 1.391-4.087 3.64-4.087s3.64 1.546 3.64 4.087c0 2.534-1.391 4.087-3.64 4.087zm5.618-.139v-7.896h1.2v1.246h.118c.396-.872 1.165-1.385 2.373-1.385 1.773 0 2.761 1.048 2.761 2.923V77h-1.26v-4.805c0-1.42-.6-2.094-1.86-2.094-1.26 0-2.073.842-2.073 2.226V77h-1.26zm9.28-9.939h1.26v2.043h1.757v1.055h-1.758v4.468c0 .93.352 1.326 1.172 1.326.227 0 .352-.008.586-.03v1.062a4.22 4.22 0 0 1-.74.074c-1.626 0-2.278-.601-2.278-2.11v-4.79h-1.274v-1.055h1.274v-2.043zm7.353 8.972c1.296 0 2.256-.85 2.256-1.977v-.725l-2.124.139c-1.201.08-1.729.498-1.729 1.289 0 .805.681 1.274 1.597 1.274zm-.234 1.106c-1.531 0-2.666-.908-2.666-2.35 0-1.414 1.04-2.227 2.878-2.337l2.278-.14v-.717c0-.974-.608-1.51-1.787-1.51-.945 0-1.604.36-1.78.982h-1.274c.168-1.267 1.413-2.102 3.098-2.102 1.926 0 3.003.99 3.003 2.63V77h-1.202v-1.165h-.117c-.512.843-1.377 1.304-2.431 1.304zm12.612-5.618h-1.274c-.206-.783-.901-1.42-2.037-1.42-1.42 0-2.314 1.135-2.314 2.922 0 1.824.908 2.98 2.314 2.98 1.062 0 1.802-.49 2.037-1.383h1.274c-.227 1.45-1.406 2.52-3.303 2.52-2.212 0-3.626-1.605-3.626-4.117 0-2.461 1.406-4.058 3.618-4.058 1.92 0 3.091 1.15 3.31 2.556zm2.534-4.46h1.26v2.043h1.758v1.055h-1.758v4.468c0 .93.351 1.326 1.172 1.326.227 0 .351-.008.586-.03v1.062a4.22 4.22 0 0 1-.74.074c-1.626 0-2.278-.601-2.278-2.11v-4.79h-1.274v-1.055h1.274v-2.043zm9.683 0h1.26v2.043h1.757v1.055h-1.758v4.468c0 .93.352 1.326 1.172 1.326.227 0 .352-.008.586-.03v1.062a4.22 4.22 0 0 1-.74.074c-1.625 0-2.277-.601-2.277-2.11v-4.79h-1.275v-1.055h1.275v-2.043zM235.528 77V65.97h1.26v4.38h.117c.395-.872 1.223-1.385 2.431-1.385 1.67 0 2.725 1.07 2.725 2.923V77h-1.26v-4.805c0-1.399-.63-2.094-1.823-2.094-1.414 0-2.19.893-2.19 2.226V77h-1.26zm11.982-6.921c-1.26 0-2.138.922-2.234 2.321h4.351c-.03-1.399-.864-2.321-2.117-2.321zm2.08 4.878h1.26c-.38 1.355-1.597 2.182-3.325 2.182-2.19 0-3.56-1.582-3.56-4.08 0-2.482 1.392-4.094 3.56-4.094 2.131 0 3.428 1.516 3.428 3.97v.483h-5.677v.06c.066 1.56.938 2.548 2.278 2.548 1.018 0 1.707-.374 2.036-1.07zM13.003 89.265c0-1.31 1.268-2.3 2.945-2.3 1.655 0 2.805.82 2.973 2.117h-1.245c-.168-.63-.783-1.047-1.736-1.047-.937 0-1.67.476-1.67 1.179 0 .542.44.879 1.37 1.106l1.216.293c1.487.359 2.205 1.003 2.205 2.138 0 1.414-1.37 2.388-3.165 2.388-1.757 0-2.966-.842-3.105-2.153h1.296c.213.666.843 1.091 1.853 1.091 1.062 0 1.824-.505 1.824-1.23 0-.542-.41-.909-1.252-1.114l-1.355-.33c-1.48-.358-2.154-.995-2.154-2.138zm11.184-1.186c-1.26 0-2.138.922-2.233 2.321h4.35c-.03-1.399-.864-2.321-2.116-2.321zm2.08 4.878h1.26c-.38 1.355-1.596 2.182-3.325 2.182-2.19 0-3.56-1.582-3.56-4.08 0-2.482 1.392-4.094 3.56-4.094 2.131 0 3.428 1.516 3.428 3.97v.483h-5.676v.06c.066 1.56.937 2.548 2.277 2.548 1.019 0 1.707-.374 2.037-1.07zM29.682 95V83.97h1.26V95h-1.26zm3.779 0V83.97h1.26V95h-1.26zm6.855-6.921c-1.26 0-2.138.922-2.233 2.321h4.35c-.03-1.399-.864-2.321-2.117-2.321zm2.08 4.878h1.26c-.38 1.355-1.596 2.182-3.325 2.182-2.19 0-3.56-1.582-3.56-4.08 0-2.482 1.392-4.094 3.56-4.094 2.131 0 3.428 1.516 3.428 3.97v.483h-5.676v.06c.065 1.56.937 2.548 2.277 2.548 1.018 0 1.707-.374 2.037-1.07zM45.736 95v-7.896h1.202v1.172h.117c.234-.769 1.142-1.31 2.19-1.31.205 0 .468.014.63.036v1.26c-.103-.03-.557-.074-.806-.074-1.201 0-2.073.806-2.073 1.92V95h-1.26zm9.258-7.896h1.348l2.16 6.504h.118l2.16-6.504h1.348L59.205 95h-1.29l-2.922-7.896zM63.841 95v-7.896h1.26V95h-1.26zm.63-9.5a.881.881 0 0 1-.88-.878c0-.484.396-.88.88-.88.483 0 .879.396.879.88a.881.881 0 0 1-.88.878zm5.464 8.533c1.296 0 2.255-.85 2.255-1.977v-.725l-2.124.139c-1.2.08-1.728.498-1.728 1.289 0 .805.681 1.274 1.597 1.274zM69.7 95.14c-1.53 0-2.666-.908-2.666-2.35 0-1.414 1.04-2.227 2.879-2.337l2.277-.14v-.717c0-.974-.607-1.51-1.787-1.51-.945 0-1.604.36-1.78.982H67.35c.169-1.267 1.414-2.102 3.098-2.102 1.927 0 3.003.99 3.003 2.63V95H72.25v-1.165h-.117c-.513.843-1.377 1.304-2.432 1.304zm13.462-7.06c-1.26 0-2.139.922-2.234 2.321h4.35c-.028-1.399-.863-2.321-2.116-2.321zm2.08 4.878h1.26c-.38 1.355-1.597 2.182-3.325 2.182-2.19 0-3.56-1.582-3.56-4.08 0-2.482 1.392-4.094 3.56-4.094 2.131 0 3.427 1.516 3.427 3.97v.483h-5.676v.06c.066 1.56.938 2.548 2.278 2.548 1.018 0 1.707-.374 2.036-1.07zM88.582 95v-7.896h1.201v1.246h.117c.36-.88 1.15-1.385 2.205-1.385 1.07 0 1.816.564 2.183 1.385h.117c.425-.835 1.325-1.385 2.417-1.385 1.611 0 2.512.923 2.512 2.578V95h-1.26v-5.164c0-1.164-.55-1.735-1.662-1.735-1.099 0-1.831.82-1.831 1.823V95h-1.26v-5.361c0-.938-.652-1.538-1.648-1.538-1.033 0-1.831.893-1.831 2.006V95h-1.26zm15.483-.967c1.297 0 2.256-.85 2.256-1.977v-.725l-2.124.139c-1.2.08-1.728.498-1.728 1.289 0 .805.68 1.274 1.596 1.274zm-.234 1.106c-1.53 0-2.666-.908-2.666-2.35 0-1.414 1.04-2.227 2.878-2.337l2.278-.14v-.717c0-.974-.608-1.51-1.787-1.51-.945 0-1.604.36-1.78.982h-1.274c.168-1.267 1.414-2.102 3.098-2.102 1.926 0 3.003.99 3.003 2.63V95h-1.201v-1.165h-.117c-.513.843-1.377 1.304-2.432 1.304zM109.94 95v-7.896h1.26V95h-1.26zm.63-9.5a.881.881 0 0 1-.879-.878c0-.484.396-.88.88-.88.483 0 .878.396.878.88a.881.881 0 0 1-.879.878zm3.106 9.5V83.97h1.26V95h-1.26z"/>
        </g>
        <g fill-rule="nonzero">
            <path fill="#455CCC" d="M32.925 547.936c-.022 1.707.261 3.317.848 4.832a13.097 13.097 0 0 0 2.432 4.016 13.112 13.112 0 0 0 3.648 2.864 12.653 12.653 0 0 0 4.496 1.408c.426.043.88.09 1.36.144.48.053 1.008.085 1.584.096a37.556 37.556 0 0 0 4.352-.176c1.962-.192 3.424-.448 4.384-.768.96-.32 1.354-.501 1.184-.544-1.046-.192-1.92-.49-2.624-.896-.363-.235-.512-.55-.448-.944.064-.395.245-.773.544-1.136.96-1.11 1.744-2.4 2.352-3.872.608-1.472.922-3.061.944-4.768.021-1.792-.294-3.483-.944-5.072a13.544 13.544 0 0 0-2.656-4.176 12.697 12.697 0 0 0-3.952-2.848 11.75 11.75 0 0 0-4.864-1.088 11.606 11.606 0 0 0-4.88.976 12.622 12.622 0 0 0-4 2.768 13.361 13.361 0 0 0-2.72 4.128c-.672 1.579-1.019 3.264-1.04 5.056zm9.728 3.968a.836.836 0 0 1-.624-.288.948.948 0 0 1-.272-.672c0-.256.09-.475.272-.656a.858.858 0 0 1 .624-.272h8.928c.234 0 .437.09.608.272.17.181.256.4.256.656a.98.98 0 0 1-.256.672.788.788 0 0 1-.608.288h-8.928zm-3.552-5.6a.842.842 0 0 1-.64-.272.923.923 0 0 1-.256-.656c0-.256.085-.475.256-.656a.842.842 0 0 1 .64-.272h12.48c.234 0 .437.09.608.272.17.181.256.4.256.656a.923.923 0 0 1-.256.656.807.807 0 0 1-.608.272H39.1z"/>
            <path fill="#CCC" d="M93.075 547.936c.022 1.707-.261 3.317-.848 4.832a13.097 13.097 0 0 1-2.432 4.016 13.112 13.112 0 0 1-3.648 2.864 12.653 12.653 0 0 1-4.496 1.408c-.426.043-.88.09-1.36.144a17.32 17.32 0 0 1-1.584.096 37.556 37.556 0 0 1-4.352-.176c-1.962-.192-3.424-.448-4.384-.768-.96-.32-1.354-.501-1.184-.544 1.046-.192 1.92-.49 2.624-.896.363-.235.512-.55.448-.944-.064-.395-.245-.773-.544-1.136-.96-1.11-1.744-2.4-2.352-3.872-.608-1.472-.922-3.061-.944-4.768-.021-1.792.294-3.483.944-5.072a13.544 13.544 0 0 1 2.656-4.176 12.697 12.697 0 0 1 3.952-2.848 11.75 11.75 0 0 1 4.864-1.088 11.606 11.606 0 0 1 4.88.976 12.622 12.622 0 0 1 4 2.768 13.361 13.361 0 0 1 2.72 4.128c.672 1.579 1.019 3.264 1.04 5.056zm-9.728 3.968a.836.836 0 0 0 .624-.288.948.948 0 0 0 .272-.672.894.894 0 0 0-.272-.656.858.858 0 0 0-.624-.272H74.42a.807.807 0 0 0-.608.272.923.923 0 0 0-.256.656c0 .256.086.48.256.672.17.192.374.288.608.288h8.928zm3.552-5.6c.256 0 .47-.09.64-.272.17-.181.256-.4.256-.656a.923.923 0 0 0-.256-.656.842.842 0 0 0-.64-.272H74.42a.807.807 0 0 0-.608.272.923.923 0 0 0-.256.656c0 .256.086.475.256.656.17.181.374.272.608.272H86.9z"/>
            <path fill="#191919" d="M109.413 553h-1.319v-9.382h-3.406v-1.187h8.13v1.187h-3.405V553zm6.613-.967c1.297 0 2.256-.85 2.256-1.977v-.725l-2.124.139c-1.201.08-1.728.498-1.728 1.289 0 .805.68 1.274 1.596 1.274zm-.234 1.106c-1.53 0-2.666-.908-2.666-2.35 0-1.414 1.04-2.227 2.878-2.337l2.278-.14v-.717c0-.974-.608-1.51-1.787-1.51-.945 0-1.604.36-1.78.982h-1.274c.168-1.267 1.413-2.102 3.098-2.102 1.926 0 3.003.99 3.003 2.63V553h-1.201v-1.165h-.117c-.513.843-1.377 1.304-2.432 1.304zm6.152-.139v-11.03h1.26V553h-1.26zm5.157-4.446l3.427-3.45h1.546l-3.399 3.384 3.626 4.512h-1.604l-2.96-3.699-.754.703V553h-1.26v-11.03h1.26v6.584h.118zm11.455-5.493h1.26v2.043h1.757v1.055h-1.758v4.468c0 .93.352 1.326 1.172 1.326.227 0 .352-.008.586-.03v1.062a4.22 4.22 0 0 1-.74.074c-1.625 0-2.277-.601-2.277-2.11v-4.79h-1.275v-1.055h1.275v-2.043zm8.056 8.943c1.494 0 2.337-1.084 2.337-2.952 0-1.875-.843-2.951-2.337-2.951-1.494 0-2.336 1.076-2.336 2.951 0 1.868.842 2.952 2.336 2.952zm0 1.135c-2.248 0-3.64-1.553-3.64-4.087 0-2.541 1.392-4.087 3.64-4.087 2.249 0 3.64 1.546 3.64 4.087 0 2.534-1.391 4.087-3.64 4.087zm13-7.06c-1.259 0-2.138.922-2.233 2.321h4.35c-.029-1.399-.864-2.321-2.116-2.321zm2.08 4.878h1.26c-.38 1.355-1.596 2.182-3.325 2.182-2.19 0-3.56-1.582-3.56-4.08 0-2.482 1.392-4.094 3.56-4.094 2.132 0 3.428 1.516 3.428 3.97v.483h-5.676v.06c.066 1.56.937 2.548 2.278 2.548 1.018 0 1.706-.374 2.036-1.07zm5.772 1.076c1.297 0 2.256-.85 2.256-1.977v-.725l-2.124.139c-1.201.08-1.728.498-1.728 1.289 0 .805.68 1.274 1.596 1.274zm-.234 1.106c-1.53 0-2.666-.908-2.666-2.35 0-1.414 1.04-2.227 2.878-2.337l2.278-.14v-.717c0-.974-.608-1.51-1.787-1.51-.945 0-1.604.36-1.78.982h-1.274c.168-1.267 1.413-2.102 3.098-2.102 1.926 0 3.003.99 3.003 2.63V553h-1.201v-1.165h-.117c-.513.843-1.377 1.304-2.432 1.304zm12.612-5.618h-1.274c-.205-.783-.901-1.42-2.036-1.42-1.421 0-2.315 1.135-2.315 2.922 0 1.824.908 2.98 2.315 2.98 1.062 0 1.801-.49 2.036-1.383h1.274c-.227 1.45-1.406 2.52-3.303 2.52-2.212 0-3.625-1.605-3.625-4.117 0-2.461 1.406-4.058 3.618-4.058 1.919 0 3.09 1.15 3.31 2.556zm1.934 5.479v-11.03h1.26v4.38h.117c.395-.872 1.223-1.385 2.431-1.385 1.67 0 2.725 1.07 2.725 2.923V553h-1.26v-4.805c0-1.399-.63-2.094-1.823-2.094-1.414 0-2.19.893-2.19 2.226V553h-1.26zm16.31-.996c1.495 0 2.337-1.084 2.337-2.952 0-1.875-.842-2.951-2.336-2.951-1.494 0-2.337 1.076-2.337 2.951 0 1.868.843 2.952 2.337 2.952zm0 1.135c-2.248 0-3.64-1.553-3.64-4.087 0-2.541 1.392-4.087 3.64-4.087 2.25 0 3.641 1.546 3.641 4.087 0 2.534-1.392 4.087-3.64 4.087zm6.146-10.078h1.26v2.043h1.758v1.055h-1.758v4.468c0 .93.351 1.326 1.172 1.326.227 0 .351-.008.586-.03v1.062a4.22 4.22 0 0 1-.74.074c-1.626 0-2.278-.601-2.278-2.11v-4.79h-1.274v-1.055h1.274v-2.043zm4.995 9.939v-11.03h1.26v4.38h.117c.396-.872 1.223-1.385 2.432-1.385 1.67 0 2.724 1.07 2.724 2.923V553h-1.26v-4.805c0-1.399-.63-2.094-1.823-2.094-1.414 0-2.19.893-2.19 2.226V553h-1.26zm11.982-6.921c-1.26 0-2.138.922-2.233 2.321h4.35c-.03-1.399-.864-2.321-2.117-2.321zm2.08 4.878h1.26c-.38 1.355-1.596 2.182-3.325 2.182-2.19 0-3.56-1.582-3.56-4.08 0-2.482 1.392-4.094 3.56-4.094 2.131 0 3.428 1.516 3.428 3.97v.483h-5.676v.06c.066 1.56.937 2.548 2.277 2.548 1.018 0 1.707-.374 2.037-1.07zm3.34 2.043v-7.896h1.202v1.172h.117c.234-.769 1.142-1.31 2.19-1.31.205 0 .468.014.63.036v1.26c-.103-.03-.557-.074-.806-.074-1.201 0-2.073.806-2.073 1.92V553h-1.26z"/>
        </g>
        <g transform="translate(32 602)">
            <rect width="275" height="54" fill="#F2F2F2" rx="8"/>
            <path fill="#191919" fill-rule="nonzero" d="M12.842 20.239h1.333c.161 1.106 1.216 1.809 2.718 1.809 1.42 0 2.468-.77 2.468-1.817 0-.9-.66-1.472-2.117-1.838l-1.355-.351c-1.911-.484-2.74-1.348-2.74-2.85 0-1.794 1.502-3.01 3.736-3.01 2.044 0 3.567 1.216 3.677 2.922h-1.326c-.183-1.083-1.076-1.728-2.395-1.728-1.406 0-2.336.703-2.336 1.772 0 .828.578 1.304 2.036 1.678l1.106.293c2.19.549 3.069 1.399 3.069 2.951 0 1.941-1.53 3.179-3.948 3.179-2.241 0-3.787-1.186-3.926-3.01zm13.052-4.16c-1.26 0-2.139.922-2.234 2.321h4.35c-.029-1.399-.864-2.321-2.116-2.321zm2.08 4.878h1.26c-.381 1.355-1.597 2.182-3.325 2.182-2.19 0-3.56-1.582-3.56-4.08 0-2.482 1.392-4.094 3.56-4.094 2.131 0 3.427 1.516 3.427 3.97v.483H23.66v.06c.066 1.56.938 2.548 2.278 2.548 1.018 0 1.707-.374 2.036-1.07zM31.387 23V11.97h1.26V23h-1.26zm3.78 0V11.97h1.26V23h-1.26zm6.855-6.921c-1.26 0-2.139.922-2.234 2.321h4.35c-.029-1.399-.864-2.321-2.116-2.321zm2.08 4.878h1.26c-.381 1.355-1.597 2.182-3.325 2.182-2.19 0-3.56-1.582-3.56-4.08 0-2.482 1.392-4.094 3.56-4.094 2.131 0 3.427 1.516 3.427 3.97v.483h-5.676v.06c.066 1.56.938 2.548 2.278 2.548 1.018 0 1.706-.374 2.036-1.07zM47.442 23v-7.896h1.201v1.172h.117c.235-.769 1.143-1.31 2.19-1.31.205 0 .469.014.63.036v1.26c-.102-.03-.557-.074-.806-.074-1.2 0-2.072.806-2.072 1.92V23h-1.26zm12.378-.967c1.296 0 2.256-.85 2.256-1.977v-.725l-2.124.139c-1.202.08-1.729.498-1.729 1.289 0 .805.681 1.274 1.597 1.274zm-.235 1.106c-1.53 0-2.666-.908-2.666-2.35 0-1.414 1.04-2.227 2.879-2.337l2.278-.14v-.717c0-.974-.608-1.51-1.787-1.51-.945 0-1.604.36-1.78.982h-1.275c.169-1.267 1.414-2.102 3.099-2.102 1.926 0 3.002.99 3.002 2.63V23h-1.2v-1.165h-.118c-.513.843-1.377 1.304-2.432 1.304zm6.08-.139v-7.896h1.2v1.172h.118c.234-.769 1.142-1.31 2.19-1.31.205 0 .469.014.63.036v1.26c-.103-.03-.557-.074-.806-.074-1.201 0-2.073.806-2.073 1.92V23h-1.26zm5.859 0v-7.896h1.201v1.172h.117c.235-.769 1.143-1.31 2.19-1.31.205 0 .469.014.63.036v1.26c-.102-.03-.557-.074-.806-.074-1.2 0-2.072.806-2.072 1.92V23h-1.26zm8.144-.967c1.297 0 2.256-.85 2.256-1.977v-.725l-2.124.139c-1.2.08-1.728.498-1.728 1.289 0 .805.68 1.274 1.596 1.274zm-.234 1.106c-1.53 0-2.666-.908-2.666-2.35 0-1.414 1.04-2.227 2.878-2.337l2.278-.14v-.717c0-.974-.608-1.51-1.787-1.51-.945 0-1.604.36-1.78.982h-1.274c.168-1.267 1.414-2.102 3.098-2.102 1.926 0 3.003.99 3.003 2.63V23h-1.201v-1.165h-.117c-.513.843-1.377 1.304-2.432 1.304zm6.08-.139v-7.896h1.2v1.246h.118c.395-.872 1.164-1.385 2.373-1.385 1.772 0 2.76 1.048 2.76 2.923V23h-1.259v-4.805c0-1.42-.6-2.094-1.86-2.094-1.26 0-2.073.842-2.073 2.226V23h-1.26zm14.289-4.065c0-1.721-.886-2.834-2.344-2.834-1.465 0-2.285 1.113-2.285 2.834s.82 2.835 2.285 2.835c1.465 0 2.344-1.114 2.344-2.835zm-2.285 7.097c-1.905 0-3.12-.857-3.311-2.16h1.333c.14.644.842 1.062 1.978 1.062 1.413 0 2.255-.696 2.255-1.86V21.52h-.117c-.498.871-1.391 1.362-2.475 1.362-2.044 0-3.31-1.582-3.31-3.948 0-2.366 1.28-3.97 3.31-3.97 1.106 0 2.08.542 2.534 1.392h.117v-1.253h1.201v8.035c0 1.765-1.362 2.893-3.515 2.893zm9.038-9.953c-1.26 0-2.139.922-2.234 2.321h4.35c-.029-1.399-.864-2.321-2.116-2.321zm2.08 4.878h1.26c-.381 1.355-1.597 2.182-3.326 2.182-2.19 0-3.56-1.582-3.56-4.08 0-2.482 1.392-4.094 3.56-4.094 2.132 0 3.428 1.516 3.428 3.97v.483h-5.676v.06c.066 1.56.937 2.548 2.278 2.548 1.018 0 1.706-.374 2.036-1.07zm10.495 2.182c-2.021 0-3.318-1.604-3.318-4.087 0-2.475 1.312-4.087 3.318-4.087 1.099 0 2.03.52 2.476 1.385h.11v-4.38h1.26V23h-1.202v-1.26h-.117c-.498.88-1.435 1.4-2.527 1.4zm.293-7.038c-1.435 0-2.307 1.113-2.307 2.951 0 1.846.864 2.952 2.307 2.952 1.436 0 2.322-1.128 2.322-2.952 0-1.809-.893-2.951-2.322-2.951zm9.148-.022c-1.26 0-2.138.922-2.234 2.321h4.351c-.03-1.399-.864-2.321-2.117-2.321zm2.08 4.878h1.26c-.38 1.355-1.597 2.182-3.325 2.182-2.19 0-3.56-1.582-3.56-4.08 0-2.482 1.392-4.094 3.56-4.094 2.131 0 3.428 1.516 3.428 3.97v.483h-5.677v.06c.066 1.56.938 2.548 2.278 2.548 1.018 0 1.707-.374 2.036-1.07zM134.065 23V11.97h1.26V23h-1.26zm3.736 0v-7.896h1.26V23h-1.26zm.63-9.5a.881.881 0 0 1-.88-.878c0-.484.396-.88.88-.88.483 0 .879.396.879.88a.881.881 0 0 1-.88.878zm2.343 1.604h1.348l2.16 6.504h.118l2.16-6.504h1.348L144.986 23h-1.29l-2.922-7.896zm11.675.975c-1.26 0-2.138.922-2.234 2.321h4.35c-.028-1.399-.863-2.321-2.116-2.321zm2.08 4.878h1.26c-.38 1.355-1.597 2.182-3.325 2.182-2.19 0-3.56-1.582-3.56-4.08 0-2.482 1.392-4.094 3.56-4.094 2.131 0 3.428 1.516 3.428 3.97v.483h-5.677v.06c.066 1.56.938 2.548 2.278 2.548 1.018 0 1.707-.374 2.036-1.07zM157.87 23v-7.896h1.201v1.172h.118c.234-.769 1.142-1.31 2.19-1.31.205 0 .468.014.63.036v1.26c-.103-.03-.557-.074-.806-.074-1.202 0-2.073.806-2.073 1.92V23h-1.26zm6.387 2.856a3.73 3.73 0 0 1-.564-.044v-1.076c.154.03.351.036.527.036.725 0 1.12-.344 1.45-1.296l.147-.469-2.922-7.903h1.362l2.168 6.497h.117l2.16-6.497h1.341l-3.084 8.38c-.673 1.83-1.303 2.372-2.702 2.372zm15.63-2.717c-1.099 0-2.036-.52-2.534-1.399h-.118V23h-1.2V11.97h1.259v4.38h.117c.432-.85 1.392-1.385 2.476-1.385 2.007 0 3.31 1.604 3.31 4.087 0 2.469-1.31 4.087-3.31 4.087zm-.293-7.038c-1.436 0-2.33 1.128-2.33 2.951 0 1.824.894 2.952 2.33 2.952 1.443 0 2.3-1.106 2.3-2.952 0-1.845-.857-2.951-2.3-2.951zm8.012 5.932c1.297 0 2.256-.85 2.256-1.977v-.725l-2.124.139c-1.2.08-1.728.498-1.728 1.289 0 .805.68 1.274 1.596 1.274zm-.234 1.106c-1.53 0-2.666-.908-2.666-2.35 0-1.414 1.04-2.227 2.878-2.337l2.278-.14v-.717c0-.974-.608-1.51-1.787-1.51-.945 0-1.604.36-1.78.982h-1.274c.168-1.267 1.414-2.102 3.098-2.102 1.926 0 3.003.99 3.003 2.63V23h-1.201v-1.165h-.117c-.513.843-1.377 1.304-2.432 1.304zm5.896-5.874c0-1.31 1.267-2.3 2.944-2.3 1.656 0 2.806.82 2.974 2.117h-1.245c-.169-.63-.784-1.047-1.736-1.047-.937 0-1.67.476-1.67 1.179 0 .542.44.879 1.37 1.106l1.216.293c1.486.359 2.204 1.003 2.204 2.138 0 1.414-1.37 2.388-3.164 2.388-1.758 0-2.966-.842-3.105-2.153h1.296c.212.666.842 1.091 1.853 1.091 1.062 0 1.824-.505 1.824-1.23 0-.542-.41-.909-1.253-1.114l-1.355-.33c-1.48-.358-2.153-.995-2.153-2.138zm11.184-1.186c-1.26 0-2.138.922-2.234 2.321h4.35c-.028-1.399-.863-2.321-2.116-2.321zm2.08 4.878h1.26c-.38 1.355-1.597 2.182-3.325 2.182-2.19 0-3.56-1.582-3.56-4.08 0-2.482 1.392-4.094 3.56-4.094 2.131 0 3.428 1.516 3.428 3.97v.483h-5.677v.06c.066 1.56.938 2.548 2.278 2.548 1.018 0 1.707-.374 2.036-1.07zm6.262 2.182c-2.021 0-3.317-1.604-3.317-4.087 0-2.475 1.31-4.087 3.317-4.087 1.1 0 2.03.52 2.476 1.385h.11v-4.38h1.26V23h-1.202v-1.26h-.117c-.498.88-1.435 1.4-2.527 1.4zm.293-7.038c-1.435 0-2.307 1.113-2.307 2.951 0 1.846.865 2.952 2.307 2.952 1.436 0 2.322-1.128 2.322-2.952 0-1.809-.893-2.951-2.322-2.951zm13.477 5.903c1.494 0 2.336-1.084 2.336-2.952 0-1.875-.842-2.951-2.336-2.951-1.494 0-2.336 1.076-2.336 2.951 0 1.868.842 2.952 2.336 2.952zm0 1.135c-2.249 0-3.64-1.553-3.64-4.087 0-2.541 1.391-4.087 3.64-4.087s3.64 1.546 3.64 4.087c0 2.534-1.391 4.087-3.64 4.087zm5.618-.139v-7.896h1.2v1.246h.118c.396-.872 1.165-1.385 2.373-1.385 1.773 0 2.761 1.048 2.761 2.923V23h-1.26v-4.805c0-1.42-.6-2.094-1.86-2.094-1.26 0-2.073.842-2.073 2.226V23h-1.26zM13.714 31.061h1.26v2.043h1.757v1.055h-1.757v4.468c0 .93.351 1.326 1.172 1.326.227 0 .351-.008.585-.03v1.062a4.22 4.22 0 0 1-.74.074c-1.625 0-2.277-.601-2.277-2.11v-4.79h-1.275v-1.055h1.275v-2.043zM18.709 41V29.97h1.26v4.38h.117c.395-.872 1.223-1.385 2.432-1.385 1.67 0 2.724 1.07 2.724 2.923V41h-1.26v-4.805c0-1.399-.63-2.094-1.823-2.094-1.414 0-2.19.893-2.19 2.226V41h-1.26zm11.982-6.921c-1.26 0-2.138.922-2.233 2.321h4.35c-.03-1.399-.864-2.321-2.117-2.321zm2.08 4.878h1.26c-.38 1.355-1.596 2.182-3.325 2.182-2.19 0-3.56-1.582-3.56-4.08 0-2.482 1.392-4.094 3.56-4.094 2.131 0 3.428 1.516 3.428 3.97v.483h-5.676v.06c.065 1.56.937 2.548 2.277 2.548 1.018 0 1.707-.374 2.036-1.07zm10.005 1.076c1.297 0 2.256-.85 2.256-1.977v-.725l-2.124.139c-1.201.08-1.728.498-1.728 1.289 0 .805.68 1.274 1.596 1.274zm-.234 1.106c-1.53 0-2.666-.908-2.666-2.35 0-1.414 1.04-2.227 2.878-2.337l2.278-.14v-.717c0-.974-.608-1.51-1.787-1.51-.945 0-1.604.36-1.78.982h-1.274c.168-1.267 1.413-2.102 3.098-2.102 1.926 0 3.003.99 3.003 2.63V41h-1.201v-1.165h-.117c-.513.843-1.377 1.304-2.432 1.304zm9.001 0c-2.021 0-3.317-1.604-3.317-4.087 0-2.475 1.31-4.087 3.317-4.087 1.1 0 2.03.52 2.476 1.385h.11v-4.38h1.26V41h-1.202v-1.26h-.117c-.498.88-1.435 1.4-2.527 1.4zm.293-7.038c-1.435 0-2.307 1.113-2.307 2.951 0 1.846.865 2.952 2.307 2.952 1.436 0 2.322-1.128 2.322-2.952 0-1.809-.893-2.951-2.322-2.951zm8.921 7.038c-2.021 0-3.318-1.604-3.318-4.087 0-2.475 1.311-4.087 3.318-4.087 1.099 0 2.03.52 2.476 1.385h.11v-4.38h1.26V41H63.4v-1.26h-.117c-.498.88-1.435 1.4-2.527 1.4zm.293-7.038c-1.435 0-2.307 1.113-2.307 2.951 0 1.846.864 2.952 2.307 2.952 1.436 0 2.322-1.128 2.322-2.952 0-1.809-.893-2.951-2.322-2.951zM67.05 41v-7.896h1.201v1.172h.117c.235-.769 1.143-1.31 2.19-1.31.205 0 .469.014.63.036v1.26c-.103-.03-.557-.074-.806-.074-1.2 0-2.072.806-2.072 1.92V41h-1.26zm8.642-6.921c-1.26 0-2.138.922-2.233 2.321h4.35c-.03-1.399-.864-2.321-2.117-2.321zm2.08 4.878h1.26c-.38 1.355-1.596 2.182-3.325 2.182-2.19 0-3.56-1.582-3.56-4.08 0-2.482 1.392-4.094 3.56-4.094 2.131 0 3.428 1.516 3.428 3.97v.483h-5.676v.06c.065 1.56.937 2.548 2.277 2.548 1.018 0 1.707-.374 2.036-1.07zm3.157-3.692c0-1.31 1.267-2.3 2.945-2.3 1.655 0 2.805.82 2.973 2.117h-1.245c-.168-.63-.784-1.047-1.736-1.047-.937 0-1.67.476-1.67 1.179 0 .542.44.879 1.37 1.106l1.216.293c1.487.359 2.204 1.003 2.204 2.138 0 1.414-1.37 2.388-3.164 2.388-1.758 0-2.966-.842-3.105-2.153h1.296c.213.666.842 1.091 1.853 1.091 1.062 0 1.824-.505 1.824-1.23 0-.542-.41-.909-1.252-1.114l-1.355-.33c-1.48-.358-2.154-.995-2.154-2.138zm7.705 0c0-1.31 1.267-2.3 2.945-2.3 1.655 0 2.805.82 2.973 2.117h-1.245c-.168-.63-.784-1.047-1.736-1.047-.937 0-1.67.476-1.67 1.179 0 .542.44.879 1.37 1.106l1.216.293c1.487.359 2.204 1.003 2.204 2.138 0 1.414-1.37 2.388-3.164 2.388-1.757 0-2.966-.842-3.105-2.153h1.296c.213.666.843 1.091 1.853 1.091 1.062 0 1.824-.505 1.824-1.23 0-.542-.41-.909-1.252-1.114l-1.355-.33c-1.48-.358-2.154-.995-2.154-2.138zM100.931 41v-7.896h1.26V41h-1.26zm.63-9.5a.881.881 0 0 1-.88-.878c0-.484.396-.88.88-.88.483 0 .878.396.878.88a.881.881 0 0 1-.878.878zm3.032 9.5v-7.896h1.2v1.246h.118c.396-.872 1.165-1.385 2.373-1.385 1.773 0 2.761 1.048 2.761 2.923V41h-1.26v-4.805c0-1.42-.6-2.094-1.86-2.094-1.26 0-2.072.842-2.072 2.226V41h-1.26zm9.28 0v-6.84h-1.311v-1.056h1.31v-.769c0-1.618.843-2.292 2.366-2.292.25 0 .469.022.777.073v1.055a3.763 3.763 0 0 0-.703-.066c-.755 0-1.18.38-1.18 1.267v.732h1.81v1.055h-1.81V41h-1.26zm7.814-.996c1.495 0 2.337-1.084 2.337-2.952 0-1.875-.842-2.951-2.337-2.951-1.494 0-2.336 1.076-2.336 2.951 0 1.868.842 2.952 2.337 2.952zm0 1.135c-2.248 0-3.64-1.553-3.64-4.087 0-2.541 1.392-4.087 3.64-4.087 2.249 0 3.64 1.546 3.64 4.087 0 2.534-1.391 4.087-3.64 4.087zm9.925-.139V29.97h1.26V41h-1.26zm6.855-6.921c-1.26 0-2.138.922-2.234 2.321h4.351c-.03-1.399-.864-2.321-2.117-2.321zm2.08 4.878h1.26c-.38 1.355-1.597 2.182-3.325 2.182-2.19 0-3.56-1.582-3.56-4.08 0-2.482 1.392-4.094 3.56-4.094 2.131 0 3.428 1.516 3.428 3.97v.483h-5.677v.06c.066 1.56.938 2.548 2.278 2.548 1.018 0 1.707-.374 2.036-1.07zM144.415 41v-6.84h-1.311v-1.056h1.31v-.769c0-1.618.843-2.292 2.366-2.292.25 0 .469.022.777.073v1.055a3.763 3.763 0 0 0-.703-.066c-.755 0-1.18.38-1.18 1.267v.732h1.81v1.055h-1.81V41h-1.26zm5.427-9.939h1.26v2.043h1.757v1.055h-1.757v4.468c0 .93.351 1.326 1.171 1.326.227 0 .352-.008.586-.03v1.062a4.22 4.22 0 0 1-.74.074c-1.625 0-2.277-.601-2.277-2.11v-4.79h-1.275v-1.055h1.275v-2.043zm13.08 10.078c-1.098 0-2.035-.52-2.533-1.399h-.118V41h-1.2V29.97h1.26v4.38h.116c.432-.85 1.392-1.385 2.476-1.385 2.007 0 3.31 1.604 3.31 4.087 0 2.469-1.31 4.087-3.31 4.087zm-.292-7.038c-1.436 0-2.33 1.128-2.33 2.951 0 1.824.894 2.952 2.33 2.952 1.443 0 2.3-1.106 2.3-2.952 0-1.845-.857-2.951-2.3-2.951zm5.962 9.755a3.73 3.73 0 0 1-.564-.044v-1.076c.154.03.351.036.527.036.725 0 1.12-.344 1.45-1.296l.147-.469-2.923-7.903h1.363l2.168 6.497h.117l2.16-6.497h1.34l-3.083 8.38c-.673 1.83-1.303 2.372-2.702 2.372zm12.231-12.795h1.26v2.043h1.758v1.055h-1.758v4.468c0 .93.352 1.326 1.172 1.326.227 0 .351-.008.586-.03v1.062a4.22 4.22 0 0 1-.74.074c-1.626 0-2.278-.601-2.278-2.11v-4.79h-1.274v-1.055h1.274v-2.043zM185.818 41V29.97h1.26v4.38h.117c.396-.872 1.223-1.385 2.432-1.385 1.67 0 2.725 1.07 2.725 2.923V41h-1.26v-4.805c0-1.399-.63-2.094-1.824-2.094-1.414 0-2.19.893-2.19 2.226V41h-1.26zm11.983-6.921c-1.26 0-2.139.922-2.234 2.321h4.35c-.029-1.399-.864-2.321-2.116-2.321zm2.08 4.878h1.26c-.381 1.355-1.597 2.182-3.326 2.182-2.19 0-3.56-1.582-3.56-4.08 0-2.482 1.392-4.094 3.56-4.094 2.132 0 3.428 1.516 3.428 3.97v.483h-5.676v.06c.066 1.56.937 2.548 2.278 2.548 1.018 0 1.706-.374 2.036-1.07zm11.499 2.182c-1.099 0-2.036-.52-2.534-1.399h-.117V41h-1.202V29.97h1.26v4.38h.117c.432-.85 1.392-1.385 2.476-1.385 2.007 0 3.31 1.604 3.31 4.087 0 2.469-1.31 4.087-3.31 4.087zm-.293-7.038c-1.436 0-2.33 1.128-2.33 2.951 0 1.824.894 2.952 2.33 2.952 1.443 0 2.3-1.106 2.3-2.952 0-1.845-.857-2.951-2.3-2.951zm11.968-.997V41h-1.201v-1.238h-.118c-.395.88-1.237 1.377-2.446 1.377-1.772 0-2.695-1.055-2.695-2.922v-5.113h1.26v4.805c0 1.421.527 2.08 1.787 2.08 1.391 0 2.153-.827 2.153-2.212v-4.673h1.26zm3.047 10.752a3.73 3.73 0 0 1-.564-.044v-1.076c.153.03.351.036.527.036.725 0 1.12-.344 1.45-1.296l.147-.469-2.923-7.903h1.363l2.168 6.497h.117l2.16-6.497h1.34l-3.083 8.38c-.674 1.83-1.304 2.372-2.702 2.372zm10.327-9.777c-1.26 0-2.139.922-2.234 2.321h4.35c-.029-1.399-.864-2.321-2.116-2.321zm2.08 4.878h1.26c-.381 1.355-1.597 2.182-3.326 2.182-2.19 0-3.56-1.582-3.56-4.08 0-2.482 1.392-4.094 3.56-4.094 2.132 0 3.428 1.516 3.428 3.97v.483h-5.676v.06c.066 1.56.937 2.548 2.278 2.548 1.018 0 1.706-.374 2.036-1.07zm3.34 2.043v-7.896h1.2v1.172h.118c.234-.769 1.143-1.31 2.19-1.31.205 0 .469.014.63.036v1.26c-.103-.03-.557-.074-.806-.074-1.201 0-2.073.806-2.073 1.92V41h-1.26z"/>
        </g>
        <g transform="translate(32 696)">
            <rect width="275" height="36" fill="#455CCC" rx="8"/>
            <path fill="#FFF" fill-rule="nonzero" d="M17.471 23h-4.123V12.431h4.043c1.94 0 3.127 1.018 3.127 2.637 0 1.099-.806 2.095-1.824 2.278v.117c1.443.183 2.359 1.172 2.359 2.57 0 1.861-1.333 2.967-3.582 2.967zm-2.805-9.404v3.39h2.11c1.596 0 2.41-.57 2.41-1.691 0-1.077-.763-1.7-2.074-1.7h-2.446zm0 8.24h2.607c1.59 0 2.425-.645 2.425-1.868s-.865-1.846-2.55-1.846h-2.482v3.713zm14.766-6.732V23H28.23v-1.238h-.117c-.395.88-1.238 1.377-2.446 1.377-1.772 0-2.695-1.055-2.695-2.922v-5.113h1.26v4.805c0 1.421.527 2.08 1.787 2.08 1.391 0 2.153-.827 2.153-2.212v-4.673h1.26zm3.047 10.752a3.73 3.73 0 0 1-.564-.044v-1.076c.153.03.351.036.527.036.725 0 1.12-.344 1.45-1.296l.147-.469-2.923-7.903h1.363l2.167 6.497h.118l2.16-6.497h1.34l-3.083 8.38c-.674 1.83-1.304 2.372-2.702 2.372zm10.327-9.777c-1.26 0-2.139.922-2.234 2.321h4.35c-.029-1.399-.864-2.321-2.116-2.321zm2.08 4.878h1.26c-.381 1.355-1.597 2.182-3.326 2.182-2.19 0-3.56-1.582-3.56-4.08 0-2.482 1.392-4.094 3.56-4.094 2.132 0 3.428 1.516 3.428 3.97v.483h-5.676v.06c.066 1.56.937 2.548 2.278 2.548 1.018 0 1.706-.374 2.036-1.07zM48.226 23v-7.896h1.2v1.172h.118c.234-.769 1.143-1.31 2.19-1.31.205 0 .469.014.63.036v1.26c-.103-.03-.557-.074-.806-.074-1.201 0-2.073.806-2.073 1.92V23h-1.26zm16.48-5.479H63.43c-.205-.783-.901-1.42-2.036-1.42-1.421 0-2.315 1.135-2.315 2.922 0 1.824.908 2.98 2.315 2.98 1.062 0 1.801-.49 2.036-1.383h1.274c-.227 1.45-1.406 2.52-3.303 2.52-2.212 0-3.626-1.605-3.626-4.117 0-2.461 1.407-4.058 3.619-4.058 1.918 0 3.09 1.15 3.31 2.556zm5.104 4.483c1.494 0 2.336-1.084 2.336-2.952 0-1.875-.842-2.951-2.336-2.951-1.494 0-2.336 1.076-2.336 2.951 0 1.868.842 2.952 2.336 2.952zm0 1.135c-2.248 0-3.64-1.553-3.64-4.087 0-2.541 1.392-4.087 3.64-4.087 2.249 0 3.64 1.546 3.64 4.087 0 2.534-1.391 4.087-3.64 4.087zM75.428 23v-7.896h1.2v1.246h.118c.396-.872 1.165-1.385 2.373-1.385 1.773 0 2.761 1.048 2.761 2.923V23h-1.26v-4.805c0-1.42-.6-2.094-1.86-2.094-1.26 0-2.073.842-2.073 2.226V23h-1.26zm9.28 0v-6.84h-1.312v-1.056h1.312v-.769c0-1.618.842-2.292 2.365-2.292.25 0 .469.022.777.073v1.055a3.763 3.763 0 0 0-.704-.066c-.754 0-1.179.38-1.179 1.267v.732h1.81v1.055h-1.81V23h-1.26zm4.929 0v-7.896h1.26V23h-1.26zm.63-9.5a.881.881 0 0 1-.88-.878c0-.484.396-.88.88-.88.483 0 .879.396.879.88a.881.881 0 0 1-.88.878zm3.032 9.5v-7.896H94.5v1.172h.117c.235-.769 1.143-1.31 2.19-1.31.205 0 .469.014.63.036v1.26c-.103-.03-.557-.074-.806-.074-1.2 0-2.072.806-2.072 1.92V23h-1.26zm5.86 0v-7.896h1.2v1.246h.118c.358-.88 1.15-1.385 2.204-1.385 1.07 0 1.817.564 2.183 1.385h.117c.425-.835 1.326-1.385 2.417-1.385 1.611 0 2.512.923 2.512 2.578V23h-1.26v-5.164c0-1.164-.549-1.735-1.662-1.735-1.099 0-1.831.82-1.831 1.823V23h-1.26v-5.361c0-.938-.652-1.538-1.648-1.538-1.033 0-1.831.893-1.831 2.006V23h-1.26zm17.284 0v-7.896h1.202v1.172h.117c.234-.769 1.142-1.31 2.19-1.31.205 0 .468.014.63.036v1.26c-.103-.03-.557-.074-.806-.074-1.201 0-2.073.806-2.073 1.92V23h-1.26zm8.643-6.921c-1.26 0-2.139.922-2.234 2.321h4.35c-.029-1.399-.864-2.321-2.116-2.321zm2.08 4.878h1.26c-.381 1.355-1.597 2.182-3.325 2.182-2.19 0-3.56-1.582-3.56-4.08 0-2.482 1.392-4.094 3.56-4.094 2.13 0 3.427 1.516 3.427 3.97v.483h-5.676v.06c.066 1.56.938 2.548 2.278 2.548 1.018 0 1.706-.374 2.036-1.07zm9.873-3.436h-1.274c-.205-.783-.901-1.42-2.036-1.42-1.421 0-2.315 1.135-2.315 2.922 0 1.824.908 2.98 2.315 2.98 1.062 0 1.801-.49 2.036-1.383h1.274c-.227 1.45-1.406 2.52-3.303 2.52-2.212 0-3.626-1.605-3.626-4.117 0-2.461 1.407-4.058 3.619-4.058 1.918 0 3.09 1.15 3.31 2.556zm5.01-1.442c-1.26 0-2.139.922-2.234 2.321h4.35c-.029-1.399-.864-2.321-2.116-2.321zm2.08 4.878h1.26c-.381 1.355-1.597 2.182-3.326 2.182-2.19 0-3.56-1.582-3.56-4.08 0-2.482 1.393-4.094 3.56-4.094 2.132 0 3.428 1.516 3.428 3.97v.483h-5.676v.06c.066 1.56.937 2.548 2.278 2.548 1.018 0 1.706-.374 2.036-1.07zM147.498 23v-7.896h1.26V23h-1.26zm.63-9.5a.881.881 0 0 1-.879-.878c0-.484.396-.88.879-.88s.879.396.879.88a.881.881 0 0 1-.88.878zm2.344 1.604h1.347l2.161 6.504h.117l2.16-6.504h1.348L154.683 23h-1.289l-2.922-7.896zM159.319 23v-7.896h1.26V23h-1.26zm.63-9.5a.881.881 0 0 1-.879-.878c0-.484.396-.88.88-.88.483 0 .878.396.878.88a.881.881 0 0 1-.879.878zm3.032 9.5v-7.896h1.202v1.246h.117c.395-.872 1.164-1.385 2.373-1.385 1.772 0 2.761 1.048 2.761 2.923V23h-1.26v-4.805c0-1.42-.6-2.094-1.86-2.094-1.26 0-2.073.842-2.073 2.226V23h-1.26zm14.29-4.065c0-1.721-.886-2.834-2.344-2.834-1.465 0-2.285 1.113-2.285 2.834s.82 2.835 2.285 2.835c1.465 0 2.344-1.114 2.344-2.835zm-2.285 7.097c-1.904 0-3.12-.857-3.31-2.16h1.332c.14.644.843 1.062 1.978 1.062 1.413 0 2.256-.696 2.256-1.86V21.52h-.117c-.499.871-1.392 1.362-2.476 1.362-2.044 0-3.31-1.582-3.31-3.948 0-2.366 1.281-3.97 3.31-3.97 1.106 0 2.08.542 2.534 1.392h.117v-1.253h1.201v8.035c0 1.765-1.362 2.893-3.515 2.893zm13.367-4.028c1.494 0 2.336-1.084 2.336-2.952 0-1.875-.842-2.951-2.336-2.951-1.495 0-2.337 1.076-2.337 2.951 0 1.868.842 2.952 2.337 2.952zm0 1.135c-2.249 0-3.64-1.553-3.64-4.087 0-2.541 1.391-4.087 3.64-4.087 2.248 0 3.64 1.546 3.64 4.087 0 2.534-1.392 4.087-3.64 4.087zm6.145-.139v-6.84h-1.311v-1.056h1.31v-.769c0-1.618.843-2.292 2.366-2.292.25 0 .469.022.777.073v1.055a3.763 3.763 0 0 0-.703-.066c-.755 0-1.18.38-1.18 1.267v.732h1.81v1.055h-1.81V23h-1.26zm12.978-8.035c2.014 0 3.318 1.604 3.318 4.087 0 2.469-1.311 4.087-3.318 4.087-1.128 0-2.036-.49-2.468-1.326h-.117v3.824h-1.26V15.104h1.201v1.319h.117c.506-.908 1.45-1.458 2.527-1.458zm-.3 7.039c1.45 0 2.314-1.106 2.314-2.952 0-1.845-.864-2.951-2.307-2.951-1.428 0-2.329 1.135-2.329 2.951 0 1.81.9 2.952 2.322 2.952zm5.595.996v-7.896h1.202v1.172h.117c.234-.769 1.142-1.31 2.19-1.31.205 0 .469.014.63.036v1.26c-.103-.03-.557-.074-.806-.074-1.201 0-2.073.806-2.073 1.92V23h-1.26zm8.738-.996c1.494 0 2.337-1.084 2.337-2.952 0-1.875-.843-2.951-2.337-2.951-1.494 0-2.336 1.076-2.336 2.951 0 1.868.842 2.952 2.336 2.952zm0 1.135c-2.248 0-3.64-1.553-3.64-4.087 0-2.541 1.392-4.087 3.64-4.087 2.249 0 3.64 1.546 3.64 4.087 0 2.534-1.391 4.087-3.64 4.087zm8.54 0c-2.021 0-3.318-1.604-3.318-4.087 0-2.475 1.311-4.087 3.318-4.087 1.099 0 2.03.52 2.476 1.385h.11v-4.38h1.26V23h-1.202v-1.26h-.117c-.498.88-1.435 1.4-2.527 1.4zm.293-7.038c-1.435 0-2.307 1.113-2.307 2.951 0 1.846.864 2.952 2.307 2.952 1.436 0 2.322-1.128 2.322-2.952 0-1.809-.893-2.951-2.322-2.951zm12.386-.997V23h-1.202v-1.238h-.117c-.395.88-1.238 1.377-2.446 1.377-1.773 0-2.695-1.055-2.695-2.922v-5.113h1.26v4.805c0 1.421.527 2.08 1.786 2.08 1.392 0 2.154-.827 2.154-2.212v-4.673h1.26zm8.906 2.417h-1.275c-.205-.783-.9-1.42-2.036-1.42-1.42 0-2.314 1.135-2.314 2.922 0 1.824.908 2.98 2.314 2.98 1.062 0 1.802-.49 2.036-1.383h1.275c-.227 1.45-1.406 2.52-3.303 2.52-2.212 0-3.626-1.605-3.626-4.117 0-2.461 1.406-4.058 3.618-4.058 1.92 0 3.091 1.15 3.31 2.556zm2.534-4.46h1.26v2.043h1.758v1.055h-1.758v4.468c0 .93.351 1.326 1.172 1.326.227 0 .351-.008.586-.03v1.062a4.22 4.22 0 0 1-.74.074c-1.626 0-2.278-.601-2.278-2.11v-4.79h-1.274v-1.055h1.274v-2.043z"/>
        </g>
        <g transform="translate(32 772)">
            <rect width="275" height="54" fill="#F66" rx="8"/>
            <path fill="#FFF" fill-rule="nonzero" d="M12.842 20.239h1.333c.161 1.106 1.216 1.809 2.718 1.809 1.42 0 2.468-.77 2.468-1.817 0-.9-.66-1.472-2.117-1.838l-1.355-.351c-1.911-.484-2.74-1.348-2.74-2.85 0-1.794 1.502-3.01 3.736-3.01 2.044 0 3.567 1.216 3.677 2.922h-1.326c-.183-1.083-1.076-1.728-2.395-1.728-1.406 0-2.336.703-2.336 1.772 0 .828.578 1.304 2.036 1.678l1.106.293c2.19.549 3.069 1.399 3.069 2.951 0 1.941-1.53 3.179-3.948 3.179-2.241 0-3.787-1.186-3.926-3.01zM22.745 23v-7.896h1.2v1.246h.118c.359-.88 1.15-1.385 2.205-1.385 1.069 0 1.816.564 2.182 1.385h.117c.425-.835 1.326-1.385 2.417-1.385 1.612 0 2.513.923 2.513 2.578V23h-1.26v-5.164c0-1.164-.55-1.735-1.663-1.735-1.098 0-1.83.82-1.83 1.823V23h-1.26v-5.361c0-.938-.652-1.538-1.649-1.538-1.032 0-1.83.893-1.83 2.006V23h-1.26zm15.483-.967c1.296 0 2.256-.85 2.256-1.977v-.725l-2.124.139c-1.201.08-1.729.498-1.729 1.289 0 .805.681 1.274 1.597 1.274zm-.234 1.106c-1.531 0-2.666-.908-2.666-2.35 0-1.414 1.04-2.227 2.878-2.337l2.278-.14v-.717c0-.974-.608-1.51-1.787-1.51-.945 0-1.604.36-1.78.982h-1.274c.168-1.267 1.413-2.102 3.098-2.102 1.926 0 3.003.99 3.003 2.63V23h-1.202v-1.165h-.117c-.512.843-1.377 1.304-2.431 1.304zM44.073 23v-7.896h1.2v1.172h.118c.234-.769 1.143-1.31 2.19-1.31.205 0 .469.014.63.036v1.26c-.103-.03-.557-.074-.806-.074-1.2 0-2.072.806-2.072 1.92V23h-1.26zm6.68-9.939h1.26v2.043h1.757v1.055h-1.758v4.468c0 .93.352 1.326 1.172 1.326.227 0 .352-.008.586-.03v1.062a4.22 4.22 0 0 1-.74.074c-1.626 0-2.278-.601-2.278-2.11v-4.79h-1.274v-1.055h1.274v-2.043zm15.688 4.46h-1.274c-.206-.783-.901-1.42-2.037-1.42-1.42 0-2.314 1.135-2.314 2.922 0 1.824.908 2.98 2.314 2.98 1.062 0 1.802-.49 2.037-1.383h1.274c-.227 1.45-1.406 2.52-3.303 2.52-2.212 0-3.626-1.605-3.626-4.117 0-2.461 1.406-4.058 3.618-4.058 1.92 0 3.091 1.15 3.31 2.556zm5.105 4.483c1.494 0 2.336-1.084 2.336-2.952 0-1.875-.842-2.951-2.336-2.951-1.494 0-2.337 1.076-2.337 2.951 0 1.868.843 2.952 2.337 2.952zm0 1.135c-2.249 0-3.64-1.553-3.64-4.087 0-2.541 1.391-4.087 3.64-4.087 2.248 0 3.64 1.546 3.64 4.087 0 2.534-1.392 4.087-3.64 4.087zM77.164 23v-7.896h1.2v1.246h.118c.395-.872 1.164-1.385 2.373-1.385 1.772 0 2.761 1.048 2.761 2.923V23h-1.26v-4.805c0-1.42-.6-2.094-1.86-2.094-1.26 0-2.073.842-2.073 2.226V23h-1.26zm9.28-9.939h1.26v2.043h1.757v1.055h-1.758v4.468c0 .93.352 1.326 1.172 1.326.227 0 .352-.008.586-.03v1.062a4.22 4.22 0 0 1-.74.074c-1.626 0-2.278-.601-2.278-2.11v-4.79H85.17v-1.055h1.274v-2.043zM91.364 23v-7.896h1.201v1.172h.118c.234-.769 1.142-1.31 2.19-1.31.205 0 .468.014.63.036v1.26c-.103-.03-.557-.074-.806-.074-1.201 0-2.073.806-2.073 1.92V23h-1.26zm8.145-.967c1.296 0 2.256-.85 2.256-1.977v-.725l-2.124.139c-1.202.08-1.729.498-1.729 1.289 0 .805.681 1.274 1.597 1.274zm-.235 1.106c-1.53 0-2.666-.908-2.666-2.35 0-1.414 1.04-2.227 2.879-2.337l2.278-.14v-.717c0-.974-.608-1.51-1.787-1.51-.945 0-1.604.36-1.78.982h-1.275c.169-1.267 1.414-2.102 3.098-2.102 1.927 0 3.003.99 3.003 2.63V23h-1.2v-1.165h-.118c-.513.843-1.377 1.304-2.432 1.304zm12.613-5.618h-1.275c-.205-.783-.9-1.42-2.036-1.42-1.42 0-2.314 1.135-2.314 2.922 0 1.824.908 2.98 2.314 2.98 1.062 0 1.802-.49 2.036-1.383h1.275c-.227 1.45-1.407 2.52-3.304 2.52-2.211 0-3.625-1.605-3.625-4.117 0-2.461 1.406-4.058 3.618-4.058 1.92 0 3.091 1.15 3.31 2.556zm2.534-4.46h1.26v2.043h1.757v1.055h-1.757v4.468c0 .93.351 1.326 1.172 1.326.227 0 .351-.008.585-.03v1.062a4.22 4.22 0 0 1-.74.074c-1.625 0-2.277-.601-2.277-2.11v-4.79h-1.275v-1.055h1.275v-2.043zM123.577 23v-7.896h1.201v1.172h.118c.234-.769 1.142-1.31 2.19-1.31.205 0 .468.014.63.036v1.26c-.103-.03-.557-.074-.806-.074-1.202 0-2.073.806-2.073 1.92V23h-1.26zm8.643-6.921c-1.26 0-2.139.922-2.234 2.321h4.35c-.029-1.399-.864-2.321-2.116-2.321zm2.08 4.878h1.26c-.381 1.355-1.597 2.182-3.326 2.182-2.19 0-3.56-1.582-3.56-4.08 0-2.482 1.392-4.094 3.56-4.094 2.132 0 3.428 1.516 3.428 3.97v.483h-5.676v.06c.066 1.56.937 2.548 2.278 2.548 1.018 0 1.706-.374 2.036-1.07zM137.713 23V11.97h1.26V23h-1.26zm6.855-6.921c-1.26 0-2.138.922-2.234 2.321h4.351c-.03-1.399-.864-2.321-2.117-2.321zm2.08 4.878h1.26c-.38 1.355-1.596 2.182-3.325 2.182-2.19 0-3.56-1.582-3.56-4.08 0-2.482 1.392-4.094 3.56-4.094 2.131 0 3.428 1.516 3.428 3.97v.483h-5.677v.06c.066 1.56.938 2.548 2.278 2.548 1.018 0 1.707-.374 2.036-1.07zm5.772 1.076c1.296 0 2.256-.85 2.256-1.977v-.725l-2.124.139c-1.201.08-1.729.498-1.729 1.289 0 .805.681 1.274 1.597 1.274zm-.234 1.106c-1.531 0-2.666-.908-2.666-2.35 0-1.414 1.04-2.227 2.878-2.337l2.278-.14v-.717c0-.974-.608-1.51-1.787-1.51-.945 0-1.604.36-1.78.982h-1.275c.169-1.267 1.414-2.102 3.099-2.102 1.926 0 3.003.99 3.003 2.63V23h-1.202v-1.165h-.117c-.513.843-1.377 1.304-2.431 1.304zm5.896-5.874c0-1.31 1.267-2.3 2.944-2.3 1.655 0 2.805.82 2.974 2.117h-1.246c-.168-.63-.783-1.047-1.735-1.047-.938 0-1.67.476-1.67 1.179 0 .542.44.879 1.37 1.106l1.215.293c1.487.359 2.205 1.003 2.205 2.138 0 1.414-1.37 2.388-3.164 2.388-1.758 0-2.967-.842-3.106-2.153h1.297c.212.666.842 1.091 1.853 1.091 1.062 0 1.823-.505 1.823-1.23 0-.542-.41-.909-1.252-1.114l-1.355-.33c-1.48-.358-2.153-.995-2.153-2.138zm11.184-1.186c-1.26 0-2.139.922-2.234 2.321h4.35c-.029-1.399-.864-2.321-2.116-2.321zm2.08 4.878h1.26c-.381 1.355-1.597 2.182-3.326 2.182-2.19 0-3.56-1.582-3.56-4.08 0-2.482 1.392-4.094 3.56-4.094 2.132 0 3.428 1.516 3.428 3.97v.483h-5.676v.06c.066 1.56.937 2.548 2.278 2.548 1.018 0 1.706-.374 2.036-1.07zm3.156-3.692c0-1.31 1.268-2.3 2.945-2.3 1.655 0 2.805.82 2.973 2.117h-1.245c-.168-.63-.783-1.047-1.736-1.047-.937 0-1.67.476-1.67 1.179 0 .542.44.879 1.37 1.106l1.216.293c1.487.359 2.205 1.003 2.205 2.138 0 1.414-1.37 2.388-3.164 2.388-1.758 0-2.967-.842-3.106-2.153h1.296c.213.666.843 1.091 1.853 1.091 1.062 0 1.824-.505 1.824-1.23 0-.542-.41-.909-1.252-1.114l-1.355-.33c-1.48-.358-2.154-.995-2.154-2.138zm12.796-4.204h1.26v2.043h1.757v1.055h-1.757v4.468c0 .93.351 1.326 1.171 1.326.228 0 .352-.008.586-.03v1.062a4.22 4.22 0 0 1-.74.074c-1.625 0-2.277-.601-2.277-2.11v-4.79h-1.275v-1.055h1.275v-2.043zM192.293 23V11.97h1.26v4.38h.117c.395-.872 1.223-1.385 2.432-1.385 1.67 0 2.724 1.07 2.724 2.923V23h-1.26v-4.805c0-1.399-.63-2.094-1.823-2.094-1.414 0-2.19.893-2.19 2.226V23h-1.26zm11.982-6.921c-1.26 0-2.138.922-2.233 2.321h4.35c-.03-1.399-.864-2.321-2.117-2.321zm2.08 4.878h1.26c-.38 1.355-1.596 2.182-3.325 2.182-2.19 0-3.56-1.582-3.56-4.08 0-2.482 1.392-4.094 3.56-4.094 2.131 0 3.428 1.516 3.428 3.97v.483h-5.676v.06c.065 1.56.937 2.548 2.277 2.548 1.018 0 1.707-.374 2.036-1.07zm9.09-8.526v6.848c0 1.597 1.047 2.754 2.878 2.754 1.831 0 2.879-1.157 2.879-2.754v-6.848h1.318v6.936c0 2.256-1.575 3.882-4.197 3.882s-4.197-1.626-4.197-3.882v-6.936h1.319zm9.302 7.808h1.333c.16 1.106 1.215 1.809 2.717 1.809 1.42 0 2.468-.77 2.468-1.817 0-.9-.659-1.472-2.117-1.838l-1.355-.351c-1.911-.484-2.739-1.348-2.739-2.85 0-1.794 1.502-3.01 3.736-3.01 2.043 0 3.566 1.216 3.676 2.922h-1.325c-.183-1.083-1.077-1.728-2.395-1.728-1.407 0-2.337.703-2.337 1.772 0 .828.579 1.304 2.036 1.678l1.106.293c2.19.549 3.07 1.399 3.07 2.951 0 1.941-1.532 3.179-3.949 3.179-2.24 0-3.786-1.186-3.925-3.01zm10.063-7.808h3.626c3.134 0 4.987 1.956 4.987 5.28 0 3.333-1.845 5.289-4.987 5.289h-3.626V12.431zm1.318 1.187v8.195h2.22c2.358 0 3.728-1.508 3.728-4.086 0-2.586-1.385-4.11-3.728-4.11h-2.22zm14.019-1.436c3.003 0 4.834 2.139 4.834 5.53 0 3.376-1.816 5.537-4.834 5.537-3.032 0-4.856-2.153-4.856-5.537 0-3.399 1.868-5.53 4.856-5.53zm0 1.216c-2.153 0-3.501 1.67-3.501 4.314 0 2.622 1.304 4.321 3.501 4.321 2.168 0 3.479-1.699 3.479-4.321 0-2.644-1.318-4.314-3.479-4.314zm6.775 3.867c0-1.31 1.267-2.3 2.944-2.3 1.655 0 2.805.82 2.974 2.117h-1.245c-.169-.63-.784-1.047-1.736-1.047-.938 0-1.67.476-1.67 1.179 0 .542.44.879 1.37 1.106l1.215.293c1.487.359 2.205 1.003 2.205 2.138 0 1.414-1.37 2.388-3.164 2.388-1.758 0-2.966-.842-3.106-2.153h1.297c.212.666.842 1.091 1.853 1.091 1.062 0 1.824-.505 1.824-1.23 0-.542-.41-.909-1.253-1.114l-1.355-.33c-1.48-.358-2.153-.995-2.153-2.138zM13.714 31.061h1.26v2.043h1.757v1.055h-1.757v4.468c0 .93.351 1.326 1.172 1.326.227 0 .351-.008.585-.03v1.062a4.22 4.22 0 0 1-.74.074c-1.625 0-2.277-.601-2.277-2.11v-4.79h-1.275v-1.055h1.275v-2.043zm8.057 8.943c1.494 0 2.336-1.084 2.336-2.952 0-1.875-.842-2.951-2.336-2.951-1.495 0-2.337 1.076-2.337 2.951 0 1.868.842 2.952 2.337 2.952zm0 1.135c-2.249 0-3.64-1.553-3.64-4.087 0-2.541 1.391-4.087 3.64-4.087 2.248 0 3.64 1.546 3.64 4.087 0 2.534-1.392 4.087-3.64 4.087zm10.378-10.078h1.26v2.043h1.758v1.055h-1.758v4.468c0 .93.351 1.326 1.172 1.326.227 0 .351-.008.586-.03v1.062a4.22 4.22 0 0 1-.74.074c-1.626 0-2.278-.601-2.278-2.11v-4.79h-1.274v-1.055h1.274v-2.043zM37.144 41V29.97h1.26v4.38h.117c.396-.872 1.223-1.385 2.432-1.385 1.67 0 2.724 1.07 2.724 2.923V41h-1.26v-4.805c0-1.399-.63-2.094-1.823-2.094-1.414 0-2.19.893-2.19 2.226V41h-1.26zm11.982-6.921c-1.26 0-2.138.922-2.233 2.321h4.35c-.03-1.399-.864-2.321-2.117-2.321zm2.08 4.878h1.26c-.38 1.355-1.596 2.182-3.325 2.182-2.19 0-3.56-1.582-3.56-4.08 0-2.482 1.392-4.094 3.56-4.094 2.131 0 3.428 1.516 3.428 3.97v.483h-5.676v.06c.065 1.56.937 2.548 2.277 2.548 1.018 0 1.707-.374 2.037-1.07zm7.39-3.692c0-1.31 1.268-2.3 2.945-2.3 1.655 0 2.805.82 2.974 2.117H63.27c-.169-.63-.784-1.047-1.736-1.047-.938 0-1.67.476-1.67 1.179 0 .542.44.879 1.37 1.106l1.215.293c1.487.359 2.205 1.003 2.205 2.138 0 1.414-1.37 2.388-3.164 2.388-1.758 0-2.967-.842-3.106-2.153h1.297c.212.666.842 1.091 1.853 1.091 1.062 0 1.823-.505 1.823-1.23 0-.542-.41-.909-1.252-1.114l-1.355-.33c-1.48-.358-2.153-.995-2.153-2.138zm11.185-1.186c-1.26 0-2.139.922-2.234 2.321h4.35c-.029-1.399-.864-2.321-2.116-2.321zm2.08 4.878h1.26c-.381 1.355-1.597 2.182-3.326 2.182-2.19 0-3.56-1.582-3.56-4.08 0-2.482 1.392-4.094 3.56-4.094 2.132 0 3.428 1.516 3.428 3.97v.483h-5.676v.06c.066 1.56.937 2.548 2.278 2.548 1.018 0 1.706-.374 2.036-1.07zM75.274 41V29.97h1.26V41h-1.26zm3.78 0V29.97h1.259V41h-1.26zm6.855-6.921c-1.26 0-2.139.922-2.234 2.321h4.35c-.029-1.399-.864-2.321-2.116-2.321zm2.08 4.878h1.26c-.381 1.355-1.597 2.182-3.326 2.182-2.19 0-3.56-1.582-3.56-4.08 0-2.482 1.392-4.094 3.56-4.094 2.132 0 3.428 1.516 3.428 3.97v.483h-5.676v.06c.066 1.56.937 2.548 2.278 2.548 1.018 0 1.706-.374 2.036-1.07zM91.329 41v-7.896h1.2v1.172h.118c.234-.769 1.143-1.31 2.19-1.31.205 0 .469.014.63.036v1.26c-.103-.03-.557-.074-.806-.074-1.201 0-2.073.806-2.073 1.92V41h-1.26z"/>
        </g>
        <g transform="translate(32 441)">
            <rect width="275" height="54" fill="#F66" rx="8"/>
            <path fill="#FFF" fill-rule="nonzero" d="M17.413 23h-1.319v-9.382h-3.406V12.43h8.13v1.187h-3.405V23zm5.354 0V11.97h1.26v4.38h.117c.395-.872 1.223-1.385 2.431-1.385 1.67 0 2.725 1.07 2.725 2.923V23h-1.26v-4.805c0-1.399-.63-2.094-1.824-2.094-1.413 0-2.19.893-2.19 2.226V23h-1.26zm11.982-6.921c-1.26 0-2.139.922-2.234 2.321h4.35c-.029-1.399-.864-2.321-2.116-2.321zm2.08 4.878h1.26c-.381 1.355-1.597 2.182-3.325 2.182-2.19 0-3.56-1.582-3.56-4.08 0-2.482 1.392-4.094 3.56-4.094 2.131 0 3.427 1.516 3.427 3.97v.483h-5.676v.06c.066 1.56.938 2.548 2.278 2.548 1.018 0 1.707-.374 2.036-1.07zm9.09-8.526v6.848c0 1.597 1.047 2.754 2.878 2.754 1.83 0 2.878-1.157 2.878-2.754v-6.848h1.319v6.936c0 2.256-1.575 3.882-4.197 3.882S44.6 21.623 44.6 19.367v-6.936h1.318zm9.301 7.808h1.333c.161 1.106 1.216 1.809 2.718 1.809 1.42 0 2.468-.77 2.468-1.817 0-.9-.66-1.472-2.117-1.838l-1.355-.351c-1.912-.484-2.74-1.348-2.74-2.85 0-1.794 1.502-3.01 3.736-3.01 2.044 0 3.567 1.216 3.677 2.922h-1.326c-.183-1.083-1.076-1.728-2.395-1.728-1.406 0-2.336.703-2.336 1.772 0 .828.578 1.304 2.036 1.678l1.106.293c2.19.549 3.069 1.399 3.069 2.951 0 1.941-1.531 3.179-3.948 3.179-2.241 0-3.787-1.186-3.926-3.01zm10.064-7.808h3.625c3.135 0 4.988 1.956 4.988 5.28 0 3.333-1.846 5.289-4.988 5.289h-3.625V12.431zm1.318 1.187v8.195h2.22c2.358 0 3.727-1.508 3.727-4.086 0-2.586-1.384-4.11-3.728-4.11h-2.219zm14.019-1.436c3.003 0 4.834 2.139 4.834 5.53 0 3.376-1.817 5.537-4.834 5.537-3.033 0-4.856-2.153-4.856-5.537 0-3.399 1.867-5.53 4.856-5.53zm0 1.216c-2.154 0-3.501 1.67-3.501 4.314 0 2.622 1.303 4.321 3.5 4.321 2.169 0 3.48-1.699 3.48-4.321 0-2.644-1.319-4.314-3.48-4.314zm6.775 3.867c0-1.31 1.267-2.3 2.944-2.3 1.655 0 2.805.82 2.973 2.117h-1.245c-.168-.63-.783-1.047-1.735-1.047-.938 0-1.67.476-1.67 1.179 0 .542.44.879 1.37 1.106l1.215.293c1.487.359 2.205 1.003 2.205 2.138 0 1.414-1.37 2.388-3.164 2.388-1.758 0-2.967-.842-3.106-2.153h1.296c.213.666.843 1.091 1.854 1.091 1.062 0 1.823-.505 1.823-1.23 0-.542-.41-.909-1.252-1.114l-1.355-.33c-1.48-.358-2.153-.995-2.153-2.138zm14.7 4.768c1.296 0 2.255-.85 2.255-1.977v-.725l-2.124.139c-1.201.08-1.728.498-1.728 1.289 0 .805.68 1.274 1.596 1.274zm-.235 1.106c-1.53 0-2.666-.908-2.666-2.35 0-1.414 1.04-2.227 2.878-2.337l2.278-.14v-.717c0-.974-.608-1.51-1.787-1.51-.945 0-1.604.36-1.78.982H99.51c.168-1.267 1.413-2.102 3.098-2.102 1.926 0 3.003.99 3.003 2.63V23h-1.201v-1.165h-.118c-.512.843-1.376 1.304-2.431 1.304zM107.94 23v-7.896h1.201v1.172h.117c.235-.769 1.143-1.31 2.19-1.31.205 0 .469.014.63.036v1.26c-.102-.03-.557-.074-.806-.074-1.2 0-2.072.806-2.072 1.92V23h-1.26zm8.643-6.921c-1.26 0-2.14.922-2.234 2.321h4.35c-.03-1.399-.864-2.321-2.116-2.321zm2.08 4.878h1.26c-.381 1.355-1.597 2.182-3.326 2.182-2.19 0-3.56-1.582-3.56-4.08 0-2.482 1.392-4.094 3.56-4.094 2.132 0 3.428 1.516 3.428 3.97v.483h-5.676v.06c.066 1.56.937 2.548 2.277 2.548 1.019 0 1.707-.374 2.037-1.07zm8.1 2.043v-6.84h-1.31v-1.056h1.31v-.769c0-1.618.842-2.292 2.366-2.292.249 0 .469.022.776.073v1.055a3.763 3.763 0 0 0-.703-.066c-.754 0-1.18.38-1.18 1.267v.732h1.81v1.055h-1.81V23h-1.259zm4.9 0v-7.896h1.201v1.172h.117c.235-.769 1.143-1.31 2.19-1.31.205 0 .47.014.63.036v1.26c-.102-.03-.556-.074-.805-.074-1.202 0-2.073.806-2.073 1.92V23h-1.26zm8.738-.996c1.494 0 2.336-1.084 2.336-2.952 0-1.875-.842-2.951-2.336-2.951-1.494 0-2.337 1.076-2.337 2.951 0 1.868.843 2.952 2.337 2.952zm0 1.135c-2.249 0-3.64-1.553-3.64-4.087 0-2.541 1.391-4.087 3.64-4.087 2.248 0 3.64 1.546 3.64 4.087 0 2.534-1.392 4.087-3.64 4.087zm5.215-.139v-.923l4.555-5.8v-.118h-4.548v-1.055h6.05v.945l-4.534 5.78v.116h4.556V23h-6.08zm11.198-6.921c-1.26 0-2.138.922-2.233 2.321h4.35c-.03-1.399-.864-2.321-2.117-2.321zm2.08 4.878h1.26c-.38 1.355-1.596 2.182-3.325 2.182-2.19 0-3.56-1.582-3.56-4.08 0-2.482 1.392-4.094 3.56-4.094 2.131 0 3.428 1.516 3.428 3.97v.483h-5.676v.06c.065 1.56.937 2.548 2.277 2.548 1.018 0 1.707-.374 2.037-1.07zm3.34 2.043v-7.896h1.202v1.246h.117c.395-.872 1.164-1.385 2.373-1.385 1.772 0 2.761 1.048 2.761 2.923V23h-1.26v-4.805c0-1.42-.6-2.094-1.86-2.094-1.26 0-2.073.842-2.073 2.226V23h-1.26zm13.016 0v-7.896h1.26V23h-1.26zm.63-9.5a.881.881 0 0 1-.88-.878c0-.484.396-.88.88-.88.483 0 .878.396.878.88a.881.881 0 0 1-.879.878zm3.032 9.5v-7.896h1.2v1.246h.118c.395-.872 1.165-1.385 2.373-1.385 1.772 0 2.761 1.048 2.761 2.923V23h-1.26v-4.805c0-1.42-.6-2.094-1.86-2.094-1.26 0-2.073.842-2.073 2.226V23h-1.26zm13.513-9.939h1.26v2.043h1.757v1.055h-1.757v4.468c0 .93.351 1.326 1.171 1.326.227 0 .352-.008.586-.03v1.062a4.22 4.22 0 0 1-.74.074c-1.625 0-2.277-.601-2.277-2.11v-4.79h-1.275v-1.055h1.275v-2.043zM197.42 23V11.97h1.26v4.38h.117c.395-.872 1.223-1.385 2.432-1.385 1.67 0 2.724 1.07 2.724 2.923V23h-1.26v-4.805c0-1.399-.63-2.094-1.823-2.094-1.414 0-2.19.893-2.19 2.226V23h-1.26zm11.982-6.921c-1.26 0-2.138.922-2.234 2.321h4.351c-.03-1.399-.864-2.321-2.117-2.321zm2.08 4.878h1.26c-.38 1.355-1.596 2.182-3.325 2.182-2.19 0-3.56-1.582-3.56-4.08 0-2.482 1.392-4.094 3.56-4.094 2.131 0 3.428 1.516 3.428 3.97v.483h-5.677v.06c.066 1.56.938 2.548 2.278 2.548 1.018 0 1.707-.374 2.036-1.07zm7.39-3.692c0-1.31 1.268-2.3 2.945-2.3 1.655 0 2.805.82 2.974 2.117h-1.246c-.168-.63-.783-1.047-1.735-1.047-.938 0-1.67.476-1.67 1.179 0 .542.44.879 1.37 1.106l1.215.293c1.487.359 2.205 1.003 2.205 2.138 0 1.414-1.37 2.388-3.164 2.388-1.758 0-2.967-.842-3.106-2.153h1.297c.212.666.842 1.091 1.853 1.091 1.062 0 1.823-.505 1.823-1.23 0-.542-.41-.909-1.252-1.114l-1.355-.33c-1.48-.358-2.153-.995-2.153-2.138zM226.908 23v-7.896h1.201v1.246h.118c.358-.88 1.15-1.385 2.204-1.385 1.07 0 1.817.564 2.183 1.385h.117c.425-.835 1.326-1.385 2.417-1.385 1.611 0 2.512.923 2.512 2.578V23h-1.26v-5.164c0-1.164-.549-1.735-1.662-1.735-1.099 0-1.831.82-1.831 1.823V23h-1.26v-5.361c0-.938-.652-1.538-1.648-1.538-1.033 0-1.831.893-1.831 2.006V23h-1.26zm15.484-.967c1.296 0 2.255-.85 2.255-1.977v-.725l-2.124.139c-1.2.08-1.728.498-1.728 1.289 0 .805.681 1.274 1.597 1.274zm-.235 1.106c-1.53 0-2.666-.908-2.666-2.35 0-1.414 1.04-2.227 2.879-2.337l2.277-.14v-.717c0-.974-.607-1.51-1.787-1.51-.944 0-1.604.36-1.78.982h-1.274c.169-1.267 1.414-2.102 3.098-2.102 1.927 0 3.003.99 3.003 2.63V23h-1.2v-1.165h-.118c-.513.843-1.377 1.304-2.432 1.304zm6.08-.139v-7.896h1.2v1.172h.118c.234-.769 1.142-1.31 2.19-1.31.205 0 .468.014.63.036v1.26c-.103-.03-.557-.074-.806-.074-1.201 0-2.073.806-2.073 1.92V23h-1.26zm6.679-9.939h1.26v2.043h1.758v1.055h-1.758v4.468c0 .93.351 1.326 1.172 1.326.227 0 .351-.008.586-.03v1.062a4.22 4.22 0 0 1-.74.074c-1.626 0-2.278-.601-2.278-2.11v-4.79h-1.274v-1.055h1.274v-2.043zM19.72 35.521h-1.275c-.205-.783-.9-1.42-2.036-1.42-1.42 0-2.314 1.135-2.314 2.922 0 1.824.908 2.98 2.314 2.98 1.062 0 1.802-.49 2.036-1.383h1.275c-.227 1.45-1.407 2.52-3.303 2.52-2.212 0-3.626-1.605-3.626-4.117 0-2.461 1.406-4.058 3.618-4.058 1.92 0 3.091 1.15 3.31 2.556zm5.105 4.483c1.494 0 2.336-1.084 2.336-2.952 0-1.875-.842-2.951-2.336-2.951-1.494 0-2.337 1.076-2.337 2.951 0 1.868.843 2.952 2.337 2.952zm0 1.135c-2.249 0-3.64-1.553-3.64-4.087 0-2.541 1.391-4.087 3.64-4.087 2.248 0 3.64 1.546 3.64 4.087 0 2.534-1.392 4.087-3.64 4.087zM30.442 41v-7.896h1.202v1.246h.117c.395-.872 1.164-1.385 2.373-1.385 1.772 0 2.761 1.048 2.761 2.923V41h-1.26v-4.805c0-1.42-.6-2.094-1.86-2.094-1.26 0-2.073.842-2.073 2.226V41h-1.26zm9.28-9.939h1.26v2.043h1.758v1.055h-1.758v4.468c0 .93.351 1.326 1.172 1.326.227 0 .351-.008.586-.03v1.062a4.22 4.22 0 0 1-.74.074c-1.626 0-2.278-.601-2.278-2.11v-4.79h-1.274v-1.055h1.274v-2.043zM44.644 41v-7.896h1.201v1.172h.117c.235-.769 1.143-1.31 2.19-1.31.205 0 .47.014.63.036v1.26c-.102-.03-.556-.074-.805-.074-1.202 0-2.073.806-2.073 1.92V41h-1.26zm8.145-.967c1.296 0 2.255-.85 2.255-1.977v-.725l-2.124.139c-1.2.08-1.728.498-1.728 1.289 0 .805.681 1.274 1.597 1.274zm-.235 1.106c-1.53 0-2.666-.908-2.666-2.35 0-1.414 1.04-2.227 2.879-2.337l2.277-.14v-.717c0-.974-.607-1.51-1.787-1.51-.944 0-1.604.36-1.78.982h-1.274c.169-1.267 1.414-2.102 3.098-2.102 1.927 0 3.003.99 3.003 2.63V41h-1.201v-1.165h-.117c-.513.843-1.377 1.304-2.432 1.304zm12.613-5.618h-1.275c-.205-.783-.9-1.42-2.036-1.42-1.42 0-2.314 1.135-2.314 2.922 0 1.824.908 2.98 2.314 2.98 1.062 0 1.802-.49 2.036-1.383h1.275c-.228 1.45-1.407 2.52-3.304 2.52-2.212 0-3.625-1.605-3.625-4.117 0-2.461 1.406-4.058 3.618-4.058 1.919 0 3.09 1.15 3.31 2.556zm2.534-4.46h1.26v2.043h1.757v1.055H68.96v4.468c0 .93.352 1.326 1.172 1.326.227 0 .352-.008.586-.03v1.062a4.22 4.22 0 0 1-.74.074c-1.625 0-2.277-.601-2.277-2.11v-4.79h-1.275v-1.055h1.275v-2.043zM77.383 41v-6.84h-1.31v-1.056h1.31v-.769c0-1.618.843-2.292 2.366-2.292.249 0 .469.022.776.073v1.055a3.763 3.763 0 0 0-.703-.066c-.754 0-1.179.38-1.179 1.267v.732h1.81v1.055h-1.81V41h-1.26zm7.815-.996c1.494 0 2.337-1.084 2.337-2.952 0-1.875-.843-2.951-2.337-2.951-1.494 0-2.336 1.076-2.336 2.951 0 1.868.842 2.952 2.336 2.952zm0 1.135c-2.248 0-3.64-1.553-3.64-4.087 0-2.541 1.392-4.087 3.64-4.087 2.249 0 3.64 1.546 3.64 4.087 0 2.534-1.391 4.087-3.64 4.087zM90.816 41v-7.896h1.201v1.172h.117c.235-.769 1.143-1.31 2.19-1.31.205 0 .469.014.63.036v1.26c-.102-.03-.557-.074-.806-.074-1.2 0-2.072.806-2.072 1.92V41h-1.26zm9.873-7.595c0-1.875 1.42-3.223 3.384-3.223 1.897 0 3.347 1.29 3.347 2.966 0 1.1-.498 1.956-2.234 3.816l-2.541 2.732v.117h4.95V41h-6.84v-.908l3.655-3.992c1.362-1.48 1.692-2.05 1.692-2.9 0-1.055-.901-1.868-2.066-1.868-1.238 0-2.073.828-2.073 2.073v.007h-1.274v-.007zM112.342 41v-9.104h-.117l-2.688 1.948v-1.391l2.812-2.022h1.311V41h-1.318zm11.63.14c-2.02 0-3.317-1.605-3.317-4.088 0-2.475 1.31-4.087 3.318-4.087 1.098 0 2.028.52 2.475 1.385h.11v-4.38h1.26V41h-1.201v-1.26h-.117c-.499.88-1.436 1.4-2.527 1.4zm.294-7.04c-1.436 0-2.308 1.114-2.308 2.952 0 1.846.865 2.952 2.308 2.952 1.435 0 2.321-1.128 2.321-2.952 0-1.809-.893-2.951-2.321-2.951zm8.43 5.933c1.296 0 2.256-.85 2.256-1.977v-.725l-2.124.139c-1.202.08-1.729.498-1.729 1.289 0 .805.681 1.274 1.597 1.274zm-.235 1.106c-1.53 0-2.666-.908-2.666-2.35 0-1.414 1.04-2.227 2.879-2.337l2.278-.14v-.717c0-.974-.608-1.51-1.787-1.51-.945 0-1.604.36-1.78.982h-1.275c.169-1.267 1.414-2.102 3.098-2.102 1.927 0 3.003.99 3.003 2.63V41h-1.2v-1.165h-.118c-.513.843-1.377 1.304-2.432 1.304zm6.46 2.717a3.73 3.73 0 0 1-.564-.044v-1.076c.154.03.352.036.528.036.725 0 1.12-.344 1.45-1.296l.146-.469-2.922-7.903h1.362l2.168 6.497h.118l2.16-6.497h1.34l-3.083 8.38c-.674 1.83-1.304 2.372-2.703 2.372zm7.068-8.59c0-1.312 1.267-2.3 2.945-2.3 1.655 0 2.805.82 2.973 2.116h-1.245c-.168-.63-.784-1.047-1.736-1.047-.937 0-1.67.476-1.67 1.179 0 .542.44.879 1.37 1.106l1.216.293c1.487.359 2.204 1.003 2.204 2.138 0 1.414-1.37 2.388-3.164 2.388-1.757 0-2.966-.842-3.105-2.153h1.296c.213.666.843 1.091 1.853 1.091 1.062 0 1.824-.505 1.824-1.23 0-.542-.41-.909-1.252-1.114l-1.355-.33c-1.48-.358-2.154-.995-2.154-2.138z"/>
        </g>
        <g transform="translate(32 866)">
            <rect width="275" height="36" fill="#455CCC" rx="8"/>
            <path fill="#FFF" fill-rule="nonzero" d="M17.471 23h-4.123V12.431h4.043c1.94 0 3.127 1.018 3.127 2.637 0 1.099-.806 2.095-1.824 2.278v.117c1.443.183 2.359 1.172 2.359 2.57 0 1.861-1.333 2.967-3.582 2.967zm-2.805-9.404v3.39h2.11c1.596 0 2.41-.57 2.41-1.691 0-1.077-.763-1.7-2.074-1.7h-2.446zm0 8.24h2.607c1.59 0 2.425-.645 2.425-1.868s-.865-1.846-2.55-1.846h-2.482v3.713zm14.766-6.732V23H28.23v-1.238h-.117c-.395.88-1.238 1.377-2.446 1.377-1.772 0-2.695-1.055-2.695-2.922v-5.113h1.26v4.805c0 1.421.527 2.08 1.787 2.08 1.391 0 2.153-.827 2.153-2.212v-4.673h1.26zm3.047 10.752a3.73 3.73 0 0 1-.564-.044v-1.076c.153.03.351.036.527.036.725 0 1.12-.344 1.45-1.296l.147-.469-2.923-7.903h1.363l2.167 6.497h.118l2.16-6.497h1.34l-3.083 8.38c-.674 1.83-1.304 2.372-2.702 2.372zm10.327-9.777c-1.26 0-2.139.922-2.234 2.321h4.35c-.029-1.399-.864-2.321-2.116-2.321zm2.08 4.878h1.26c-.381 1.355-1.597 2.182-3.326 2.182-2.19 0-3.56-1.582-3.56-4.08 0-2.482 1.392-4.094 3.56-4.094 2.132 0 3.428 1.516 3.428 3.97v.483h-5.676v.06c.066 1.56.937 2.548 2.278 2.548 1.018 0 1.706-.374 2.036-1.07zM48.226 23v-7.896h1.2v1.172h.118c.234-.769 1.143-1.31 2.19-1.31.205 0 .469.014.63.036v1.26c-.103-.03-.557-.074-.806-.074-1.201 0-2.073.806-2.073 1.92V23h-1.26zm9.946 0v-7.896h1.201v1.172h.117c.235-.769 1.143-1.31 2.19-1.31.205 0 .469.014.63.036v1.26c-.102-.03-.557-.074-.806-.074-1.2 0-2.072.806-2.072 1.92V23h-1.26zm8.144-.967c1.297 0 2.256-.85 2.256-1.977v-.725l-2.124.139c-1.2.08-1.728.498-1.728 1.289 0 .805.68 1.274 1.596 1.274zm-.234 1.106c-1.53 0-2.666-.908-2.666-2.35 0-1.414 1.04-2.227 2.878-2.337l2.278-.14v-.717c0-.974-.608-1.51-1.787-1.51-.945 0-1.604.36-1.78.982h-1.274c.168-1.267 1.414-2.102 3.098-2.102 1.926 0 3.003.99 3.003 2.63V23h-1.201v-1.165h-.117c-.513.843-1.377 1.304-2.432 1.304zm6.606-10.078h1.26v2.043h1.758v1.055h-1.758v4.468c0 .93.352 1.326 1.172 1.326.227 0 .352-.008.586-.03v1.062a4.22 4.22 0 0 1-.74.074c-1.626 0-2.278-.601-2.278-2.11v-4.79h-1.274v-1.055h1.274v-2.043zm7.962 3.018c-1.26 0-2.139.922-2.234 2.321h4.35c-.029-1.399-.864-2.321-2.116-2.321zm2.08 4.878h1.26c-.381 1.355-1.597 2.182-3.325 2.182-2.19 0-3.56-1.582-3.56-4.08 0-2.482 1.392-4.094 3.56-4.094 2.13 0 3.427 1.516 3.427 3.97v.483h-5.676v.06c.066 1.56.938 2.548 2.278 2.548 1.018 0 1.706-.374 2.036-1.07zm10.005 1.076c1.296 0 2.256-.85 2.256-1.977v-.725l-2.124.139c-1.201.08-1.729.498-1.729 1.289 0 .805.681 1.274 1.597 1.274zM92.5 23.14c-1.53 0-2.666-.908-2.666-2.35 0-1.414 1.04-2.227 2.879-2.337l2.278-.14v-.717c0-.974-.608-1.51-1.787-1.51-.945 0-1.604.36-1.78.982h-1.275c.169-1.267 1.414-2.102 3.099-2.102 1.926 0 3.002.99 3.002 2.63V23h-1.2v-1.165h-.118c-.513.843-1.377 1.304-2.432 1.304zM98.58 23v-7.896h1.2v1.246h.118c.395-.872 1.165-1.385 2.373-1.385 1.772 0 2.761 1.048 2.761 2.923V23h-1.26v-4.805c0-1.42-.6-2.094-1.86-2.094-1.26 0-2.073.842-2.073 2.226V23h-1.26zm11.674.14c-2.021 0-3.317-1.605-3.317-4.088 0-2.475 1.31-4.087 3.317-4.087 1.099 0 2.03.52 2.476 1.385h.11v-4.38h1.26V23h-1.202v-1.26h-.117c-.498.88-1.435 1.4-2.527 1.4zm.293-7.04c-1.435 0-2.307 1.114-2.307 2.952 0 1.846.864 2.952 2.307 2.952 1.436 0 2.322-1.128 2.322-2.952 0-1.809-.893-2.951-2.322-2.951zm10.306 6.9V11.97h1.26V23h-1.26zm6.855-6.921c-1.26 0-2.139.922-2.234 2.321h4.35c-.029-1.399-.864-2.321-2.116-2.321zm2.08 4.878h1.26c-.381 1.355-1.597 2.182-3.325 2.182-2.19 0-3.56-1.582-3.56-4.08 0-2.482 1.392-4.094 3.56-4.094 2.131 0 3.427 1.516 3.427 3.97v.483h-5.676v.06c.066 1.56.938 2.548 2.278 2.548 1.018 0 1.706-.374 2.036-1.07zm5.772 1.076c1.296 0 2.255-.85 2.255-1.977v-.725l-2.124.139c-1.2.08-1.728.498-1.728 1.289 0 .805.681 1.274 1.597 1.274zm-.235 1.106c-1.53 0-2.666-.908-2.666-2.35 0-1.414 1.04-2.227 2.879-2.337l2.277-.14v-.717c0-.974-.607-1.51-1.787-1.51-.945 0-1.604.36-1.78.982h-1.274c.169-1.267 1.414-2.102 3.098-2.102 1.927 0 3.003.99 3.003 2.63V23h-1.201v-1.165h-.117c-.513.843-1.377 1.304-2.432 1.304zm5.098-8.035h1.348l2.16 6.504h.117l2.161-6.504h1.348L144.634 23h-1.289l-2.922-7.896zm11.675.975c-1.26 0-2.139.922-2.234 2.321h4.35c-.029-1.399-.864-2.321-2.116-2.321zm2.08 4.878h1.26c-.381 1.355-1.597 2.182-3.326 2.182-2.19 0-3.56-1.582-3.56-4.08 0-2.482 1.392-4.094 3.56-4.094 2.132 0 3.428 1.516 3.428 3.97v.483h-5.676v.06c.066 1.56.937 2.548 2.278 2.548 1.018 0 1.706-.374 2.036-1.07zm10.005 1.076c1.296 0 2.255-.85 2.255-1.977v-.725l-2.124.139c-1.2.08-1.728.498-1.728 1.289 0 .805.681 1.274 1.597 1.274zm-.235 1.106c-1.53 0-2.666-.908-2.666-2.35 0-1.414 1.04-2.227 2.879-2.337l2.277-.14v-.717c0-.974-.607-1.51-1.787-1.51-.944 0-1.604.36-1.78.982h-1.274c.169-1.267 1.414-2.102 3.098-2.102 1.927 0 3.003.99 3.003 2.63V23h-1.2v-1.165h-.118c-.513.843-1.377 1.304-2.432 1.304zm16.846-5.618h-1.274c-.206-.783-.901-1.42-2.037-1.42-1.42 0-2.314 1.135-2.314 2.922 0 1.824.908 2.98 2.314 2.98 1.062 0 1.802-.49 2.037-1.383h1.274c-.227 1.45-1.406 2.52-3.303 2.52-2.212 0-3.626-1.605-3.626-4.117 0-2.461 1.406-4.058 3.618-4.058 1.92 0 3.091 1.15 3.31 2.556zm5.105 4.483c1.494 0 2.336-1.084 2.336-2.952 0-1.875-.842-2.951-2.336-2.951-1.494 0-2.337 1.076-2.337 2.951 0 1.868.843 2.952 2.337 2.952zm0 1.135c-2.249 0-3.64-1.553-3.64-4.087 0-2.541 1.391-4.087 3.64-4.087 2.248 0 3.64 1.546 3.64 4.087 0 2.534-1.392 4.087-3.64 4.087zm5.618-.139v-7.896h1.2v1.246h.118c.359-.88 1.15-1.385 2.205-1.385 1.069 0 1.816.564 2.182 1.385h.117c.425-.835 1.326-1.385 2.417-1.385 1.612 0 2.513.923 2.513 2.578V23h-1.26v-5.164c0-1.164-.55-1.735-1.663-1.735-1.098 0-1.83.82-1.83 1.823V23h-1.26v-5.361c0-.938-.652-1.538-1.649-1.538-1.032 0-1.83.893-1.83 2.006V23h-1.26zm13.051 0v-7.896h1.202v1.246h.117c.359-.88 1.15-1.385 2.204-1.385 1.07 0 1.817.564 2.183 1.385h.117c.425-.835 1.326-1.385 2.417-1.385 1.611 0 2.512.923 2.512 2.578V23h-1.26v-5.164c0-1.164-.549-1.735-1.662-1.735-1.099 0-1.831.82-1.831 1.823V23h-1.26v-5.361c0-.938-.652-1.538-1.648-1.538-1.033 0-1.83.893-1.83 2.006V23h-1.26zm16.202-6.921c-1.26 0-2.14.922-2.234 2.321h4.35c-.03-1.399-.864-2.321-2.116-2.321zm2.08 4.878h1.26c-.381 1.355-1.597 2.182-3.326 2.182-2.19 0-3.56-1.582-3.56-4.08 0-2.482 1.392-4.094 3.56-4.094 2.132 0 3.428 1.516 3.428 3.97v.483h-5.676v.06c.066 1.56.937 2.548 2.277 2.548 1.019 0 1.707-.374 2.037-1.07zM226.19 23v-7.896h1.2v1.246h.118c.395-.872 1.164-1.385 2.373-1.385 1.772 0 2.761 1.048 2.761 2.923V23h-1.26v-4.805c0-1.42-.6-2.094-1.86-2.094-1.26 0-2.073.842-2.073 2.226V23h-1.26zm9.28-9.939h1.259v2.043h1.758v1.055h-1.758v4.468c0 .93.352 1.326 1.172 1.326.227 0 .351-.008.586-.03v1.062a4.22 4.22 0 0 1-.74.074c-1.626 0-2.278-.601-2.278-2.11v-4.79h-1.274v-1.055h1.274v-2.043z"/>
        </g>
        <g transform="translate(213)">
            <rect width="14" height="14" fill="#F2F2F2" rx="2"/>
            <path fill="#191919" fill-rule="nonzero" d="M19.687 8.791h1.066c.129.885.973 1.447 2.174 1.447 1.136 0 1.974-.615 1.974-1.453 0-.72-.527-1.178-1.693-1.47l-1.084-.282c-1.53-.387-2.191-1.078-2.191-2.28 0-1.435 1.2-2.407 2.988-2.407 1.635 0 2.853.972 2.941 2.338h-1.06c-.147-.868-.862-1.383-1.916-1.383-1.125 0-1.87.562-1.87 1.418 0 .662.463 1.043 1.63 1.342l.884.234c1.752.44 2.455 1.12 2.455 2.361 0 1.553-1.224 2.543-3.158 2.543-1.793 0-3.03-.949-3.14-2.408zm10.44-3.328c-1.007 0-1.71.738-1.786 1.857h3.48c-.023-1.119-.691-1.857-1.693-1.857zm1.665 3.902H32.8c-.305 1.084-1.278 1.746-2.66 1.746-1.752 0-2.848-1.265-2.848-3.263 0-1.987 1.113-3.276 2.848-3.276 1.705 0 2.742 1.213 2.742 3.176v.387H28.34v.047c.053 1.248.75 2.039 1.822 2.039.815 0 1.365-.3 1.629-.856zM34.522 11V2.176h1.008V11h-1.008zm3.024 0V2.176h1.008V11h-1.008zm5.484-5.537c-1.008 0-1.71.738-1.787 1.857h3.48c-.023-1.119-.69-1.857-1.693-1.857zm1.664 3.902h1.008c-.305 1.084-1.277 1.746-2.66 1.746-1.752 0-2.848-1.265-2.848-3.263 0-1.987 1.114-3.276 2.848-3.276 1.705 0 2.742 1.213 2.742 3.176v.387h-4.54v.047c.052 1.248.75 2.039 1.821 2.039.815 0 1.366-.3 1.63-.856zM47.366 11V4.684h.961v.937h.094c.187-.615.914-1.049 1.752-1.049.164 0 .375.012.504.03v1.007a4.046 4.046 0 0 0-.645-.058c-.96 0-1.658.644-1.658 1.535V11h-1.008z"/>
        </g>
        <g fill="#455CCC" transform="translate(32)">
            <rect width="14" height="14" rx="2"/>
            <path fill-rule="nonzero" d="M23.576 11h-3.299V2.545h3.235c1.552 0 2.502.814 2.502 2.11 0 .878-.645 1.675-1.46 1.822v.093c1.155.147 1.887.938 1.887 2.057 0 1.488-1.066 2.373-2.865 2.373zm-2.244-7.523v2.712h1.688c1.277 0 1.927-.457 1.927-1.353 0-.861-.61-1.36-1.658-1.36h-1.957zm0 6.591h2.086c1.271 0 1.94-.515 1.94-1.494 0-.978-.692-1.476-2.04-1.476h-1.986v2.97zm11.813-5.384V11h-.961v-.99h-.094c-.317.703-.99 1.101-1.957 1.101-1.418 0-2.156-.843-2.156-2.338v-4.09h1.007v3.844c0 1.137.422 1.664 1.43 1.664 1.113 0 1.723-.662 1.723-1.77V4.685h1.008zm2.437 8.601c-.135 0-.31-.012-.451-.035v-.861c.123.023.281.029.422.029.58 0 .896-.275 1.16-1.037l.117-.375-2.338-6.322h1.09l1.734 5.197h.094l1.729-5.197h1.072l-2.467 6.703c-.539 1.465-1.043 1.898-2.162 1.898zm8.262-7.822c-1.008 0-1.711.738-1.787 1.857h3.48c-.023-1.119-.691-1.857-1.693-1.857zm1.664 3.902h1.008c-.305 1.084-1.278 1.746-2.66 1.746-1.752 0-2.848-1.265-2.848-3.263 0-1.987 1.113-3.276 2.847-3.276 1.706 0 2.743 1.213 2.743 3.176v.387h-4.541v.047c.052 1.248.75 2.039 1.822 2.039.814 0 1.365-.3 1.629-.856zM48.18 11V4.684h.96v.937h.094c.188-.615.914-1.049 1.752-1.049.164 0 .375.012.504.03v1.007a4.046 4.046 0 0 0-.644-.058c-.961 0-1.658.644-1.658 1.535V11H48.18z"/>
        </g>
        <g fill="#F66" transform="translate(114)">
            <rect width="14" height="14" rx="2"/>
            <path fill-rule="nonzero" d="M23.77 11.2c-2.296 0-3.732-1.7-3.732-4.425 0-2.73 1.43-4.43 3.727-4.43 1.78 0 3.17 1.12 3.422 2.749h-1.073c-.281-1.09-1.183-1.776-2.35-1.776-1.622 0-2.642 1.336-2.642 3.457 0 2.121 1.02 3.452 2.649 3.452 1.177 0 2.074-.604 2.343-1.582h1.073c-.282 1.552-1.618 2.554-3.416 2.554zm7.653-.997c1.195 0 1.869-.867 1.869-2.361 0-1.5-.674-2.362-1.87-2.362-1.194 0-1.868.862-1.868 2.362 0 1.494.674 2.361 1.869 2.361zm0 .908c-1.799 0-2.912-1.242-2.912-3.27 0-2.032 1.113-3.269 2.912-3.269s2.912 1.237 2.912 3.27c0 2.027-1.113 3.27-2.912 3.27zM35.917 11V4.684h.96v.996h.095c.316-.698.931-1.108 1.898-1.108 1.418 0 2.21.838 2.21 2.338V11H40.07V7.156c0-1.136-.48-1.676-1.488-1.676s-1.658.674-1.658 1.782V11h-1.008zm7.424-7.951h1.008v1.635h1.406v.843h-1.406v3.575c0 .744.28 1.06.937 1.06.182 0 .281-.006.469-.023v.85c-.2.034-.393.058-.592.058-1.3 0-1.822-.48-1.822-1.688V5.527h-1.02v-.843h1.02V3.049zM47.278 11V4.684h.961v.937h.094c.188-.615.914-1.049 1.752-1.049.164 0 .375.012.504.03v1.007a4.046 4.046 0 0 0-.645-.058c-.96 0-1.658.644-1.658 1.535V11h-1.008zm6.516-.773c1.037 0 1.805-.68 1.805-1.582v-.58l-1.7.11c-.96.065-1.382.4-1.382 1.032 0 .645.545 1.02 1.277 1.02zm-.188.884c-1.224 0-2.132-.726-2.132-1.88 0-1.131.832-1.782 2.302-1.87L55.6 7.25v-.574c0-.78-.487-1.207-1.43-1.207-.756 0-1.283.287-1.424.785h-1.02c.135-1.014 1.131-1.682 2.48-1.682 1.54 0 2.401.791 2.401 2.104V11h-.96v-.932h-.094c-.41.674-1.102 1.043-1.946 1.043zm10.09-4.494h-1.02c-.163-.627-.72-1.137-1.628-1.137-1.137 0-1.852.909-1.852 2.338 0 1.46.727 2.385 1.852 2.385.85 0 1.441-.392 1.629-1.107h1.02c-.182 1.16-1.126 2.015-2.643 2.015-1.77 0-2.9-1.283-2.9-3.293 0-1.968 1.124-3.246 2.894-3.246 1.535 0 2.473.92 2.648 2.045zm2.028-3.568h1.007v1.635h1.407v.843H66.73v3.575c0 .744.282 1.06.938 1.06.182 0 .281-.006.469-.023v.85c-.2.034-.393.058-.592.058-1.3 0-1.822-.48-1.822-1.688V5.527h-1.02v-.843h1.02V3.049z"/>
        </g>
    </g>
</svg>
